<?xml version="1.0" encoding="UTF-8"?><svg id="Layer_1" xmlns="http://www.w3.org/2000/svg" viewBox="0 0 1975.33 1257.07"><defs><style>.cls-1{fill:#8f740c;}</style></defs><path class="cls-1" d="m985.01,660.14c8.15-11.08,12.26-25.37,19.39-37.28,7.6-12.68,16.2-24.69,26.08-35.7,9.85-10.97,20.8-21.07,32.68-29.81,10.26-7.54,24-13.07,32.04-23.09,1.94-2.42.9-6.65-2.71-6.55-14.54.41-28.26,11.58-39.4,19.96-12.25,9.21-23.6,19.55-33.79,31-10.16,11.41-19.43,23.82-26.99,37.1-7.01,12.32-15.9,27.39-16.63,41.82-.28,5.44,6.66,6.18,9.35,2.53Z"/><path class="cls-1" d="m392.94,297.62c35.07,5.02,68.43-5.96,99.31-21.97,33.31-17.26,65.04-36.29,99.63-51.03,2.54-1.08,1.31-5.66-1.44-5.32-33.08,4.16-61.62,23.42-90.32,39.17-32.57,17.87-67.77,33.66-105.77,28.71-5.88-.77-7.34,9.59-1.41,10.43Z"/><path class="cls-1" d="m400.21,339.62c18.7.07,37.23,5.58,55.94,2.83,13.91-2.04,26.56-8.42,38.29-15.9,12.2-7.78,23.3-17.13,35.46-24.98,13.33-8.6,26.37-11.62,41.24-16.07,3.32-.99,3.6-6.17,0-7.02-25.49-6.04-51.96,18.08-70.74,31.85-11.95,8.76-24.27,17.81-38.67,22.04-19.96,5.86-41.12.35-61.52,1.73-3.5.24-3.58,5.5,0,5.51Z"/><path class="cls-1" d="m573.56,327.35c-27.87-7.44-56.93,15.81-78.01,30.82-12.95,9.22-26.32,18.67-41.58,23.69-18.09,5.95-37.3,5.95-56.13,5.79-6.72-.06-6.7,10.22,0,10.43,33.13,1.01,61.51-2.28,89.7-20.81,12.73-8.36,24.53-18.09,37.52-26.06,15.66-9.61,30.93-13.18,48.49-17.22,3.35-.77,3.2-5.78,0-6.64Z"/><path class="cls-1" d="m1297.11,185.39c23.5,8.85,47.97,14.2,70.68,25.78,21.97,11.2,39.46,27.92,60.36,40.44,19.76,11.84,43.07,12.91,65.49,13.81,13.66.55,27.32,1.08,40.98,1.39,13.24.3,27.08,2.28,39.88-1.7,4.94-1.54,4.37-7.74,0-9.49-11.78-4.71-24.96-3.96-37.47-4.69-12.86-.75-25.71-1.35-38.57-1.88-13.28-.55-26.81-.65-39.86-3.45-13.86-2.97-24.68-9.65-35.72-18.29-34.17-26.76-79.6-54.16-124.18-53.7-7.08.07-7.74,9.48-1.6,11.79Z"/><path class="cls-1" d="m1938.59,1034.13c-.88-4.89-1.84-9.75-2.83-14.61,11.02-1.99,9.22-17.3-2-16.35-.83-1.58-1.7-3.13-2.6-4.66-10.25-43.96-24-87.1-36.69-130.4-16.84-57.44-30.46-114.46-37.97-173.92-7.14-56.47-12.01-113.27-21.22-169.47-5.18-31.61-12.94-62.53-19.75-93.79-7.41-34.02-12.24-68.72-3.49-102.96,1.25-4.9-2.28-8.38-6.82-8.95-14.12-1.79-28.25-3.57-42.37-5.36-9.13-1.15-9.09,13.26,0,14.36,11.27,1.37,22.54,2.73,33.82,4.1-10.45,53.39,7.66,106.12,18.79,158.16,12.7,59.32,18.31,119.81,25.76,179.93,7.18,57.88,17.24,115.13,33.07,171.31,10.4,36.93,22.6,73.33,33.13,110.19-10.16-22.92-19.48-46.19-28.5-69.58-8.79-22.79-16.93-45.83-24.41-69.09-3.07-9.53-6.07-19.09-9-28.66-4.64-29.04-10.32-57.83-17.39-86.48-11.19-45.39-24.65-90.21-37.02-135.3-1.67-30.27-1.7-60.55-3.49-90.84-2.36-39.91-4.14-79.9-3.61-119.88.05-3.73-3.18-6.82-6.85-6.85-7.27-.07-14.54-.13-21.82-.2-.16,0-.3.03-.46.04.02-8.11.21-16.22.64-24.34.2-3.85-3.4-7.01-7.06-7.06-9.67-.14-19.33-.19-29-.24-1.76-13.24-3.5-26.48-5.22-39.73-.42-3.24-2.65-6.87-6.52-6.52-11.62,1.07-23.24,2.14-34.86,3.21-.95.09-1.77.35-2.51.72-1.48-15.07-2.84-30.16-4.06-45.25-.31-3.79-2.95-6.94-6.98-6.98-12.39-.11-24.79-.15-37.18-.22-.8-10.05-1.43-20.1-1.95-30.17,1.15-.17,2.31-.33,3.47-.5,8.35-1.28,4.81-14.01-3.5-12.71-1.96.3-3.93.6-5.9.89-1-.08-2.01.05-2.92.42-51.17,7.18-105.69,7.66-152.88-15.8-23.92-11.9-45.06-28.72-66.42-44.56-21.67-16.07-43.45-32.02-66.11-46.68-81.28-52.58-187.88-89.8-279.47-39.51-38.99,21.41-73.93,58.15-87.79,101.19-46.75-79.62-138.01-164.51-235.93-117.6-22.85,10.95-42.87,26.88-62.92,42.16-20.45,15.58-40.96,31.09-61.89,46.01-42.06,29.98-86.17,58.38-134.02,78.27-25.82,10.73-52.74,19.03-80.29,23.95-33.79,6.04-67.66,4.91-101.77,6.38-9.98.43-10.03,15.21,0,15.54,2.61.09,5.22.14,7.83.19-1.63,6.28-1.66,12.89-2.19,19.7-.01.18-.03.35-.04.53-7.87.66-15.74,1.32-23.61,1.98-4.73.4-7.85,3.47-8.24,8.24-.62,7.47-1.28,14.94-1.94,22.41-6.75-.13-13.5-.23-20.25-.24-3.07,0-6.93,2.38-7.45,5.67-1.52,9.7-2.99,19.4-4.44,29.11-12.51.61-25.02,1.23-37.53,1.84-4.48.22-7.2,3.36-7.66,7.66-.13,1.23-.28,2.46-.41,3.7-12.03-.43-24.05-.86-36.08-1.28-3.98-.14-6.78,3.34-7.03,7.03-16.56,240.99-85.26,473.79-118.06,712.4-4.43,32.23-8.27,64.56-11.11,96.97-1.44,16.44-3.86,33.52-3.58,50.04.11,6.75,2.76,13.49,8.41,16.09,1.57,3.08,4.81,5.29,9.13,4.26,228.43-54.4,456.75-108.4,687.47-152.4,65.31-12.46,130.63-24.94,196.03-36.93.07.08.15.15.23.22-1.05,2.35-2.05,4.68-2.97,6.99-.35.86-.49,1.67-.55,2.45-.57-.02-1.16,0-1.79.12-226.92,41.53-451.22,98.12-674.8,154.6-31.28,7.9-62.56,15.85-93.82,23.82-16.03,4.09-32.07,8.18-48.1,12.28-7.96,2.03-57.12,18.37-53.2-.04,1.88-8.79-10.65-12.28-13.47-3.71-2.66,8.09-.51,15.88,5.8,21.71,8.68,8.01,20.69,7.15,31.41,4.9,30.58-6.42,60.83-15.61,91.09-23.37,60.9-15.62,121.66-31.85,182.67-47.01,122.03-30.32,244.52-58.96,367.4-85.62,69.04-14.98,138.21-29.28,207.46-43.24.85,4.89,2.39,9.85,3.05,14.43.38,2.67.61,5.36.78,8.06-.91,2.26-1.84,4.52-2.73,6.79-1.2,3.07.55,5.63,3.05,6.85-.04,10.31-.32,20.63,1.42,30.54,4.27,24.34,32.99,31.05,53.62,24.06,9.45,1.68,19.39,2.06,28.49,2.9,28.2,2.6,56.36,2.51,84.56-.08,15.58-1.43,43.23.18,47.19-19.65,2.58-12.93-.76-29.34-1.86-42.37-.62-7.32-1.44-14.61-2.39-21.89,215.09,36.13,428.06,81.2,638.82,137.53,29.83,7.97,59.67,15.99,89.28,24.73,30.33,8.95,60.59,19.5,91.84,24.58,4.3.7,8-5.58,3.26-7.73-24.11-10.93-49.69-17.84-75.15-25-27.38-7.7-54.74-15.5-82.13-23.17-53.99-15.12-108.1-29.88-162.55-43.31-107.3-26.46-215.08-50.87-323.38-72.88-59.04-12-118.25-23-177.66-33,.32-.86.51-1.78.5-2.72,220.63,32.76,440.57,73.89,657.41,126.24,62,14.97,123.71,33.62,186.51,44.89.31.06.61.07.91.08-.3.22-.58.48-.83.8-9.65,12.33-21.13,28.69-23.45,44.54-.59,4.01,3.49,6.63,6.74,3.92,12.27-10.22,20.29-28.51,25.75-43.2.07-.18.1-.36.14-.54,3.53-.35,6.8-3.28,5.38-7.57-18.34-55.71-26-113.05-36.39-170.53Zm-43.66-69.09c6.26,12.98,12.27,29.29,22.62,40.25-215.83,26.59-428.58-57.26-644.75-33.84-53.79,5.83-108.28,17.13-154.18,46.73-.7-.11-1.4-.23-2.1-.34-.15-.3-.29-.6-.44-.89,35.88-24.72,74.86-41,117.92-48.8,46.1-8.35,93.18-7.69,139.72-4.09,55.04,4.26,109.88,12.08,165.16,12.63,53.23.53,103.52-11.32,155.93-18.12,55.84-7.25,112.55,3.6,168.06-6.14,4.31,3.97,12.47,1.42,12.72-4.5,2.14-3.38.72-8.56-2.92-10.72-4.97-16.32-8.75-32.88-11.86-49.59,1.1,2.79,2.17,5.59,3.3,8.36,9.47,23.36,19.87,46.37,30.81,69.07Zm-867.63,161.05c-2.01-.07-4.02-.19-6.03-.29,3.23-5.69,4.88-12.23,7.1-18.57,4.01-11.47,7.95-22.97,11.92-34.45,7.69-22.21,15.04-44.45,22.05-66.88.24-.78.31-1.5.25-2.15,3.09,2.91,6.17,5.85,9.25,8.77-1.89-.49-3.92.06-4.9,2.28-7.98,18.06-14.77,36.39-21.58,54.91-3.46,9.41-6.95,18.8-10.37,28.23-3.25,8.98-7.74,18.2-7.73,27.83,0,.11.02.22.03.33Zm29.48-149.98c-1.74-1.49-3.5-2.97-5.28-4.42,5.64,3.83,11.04,7.92,16.08,12.18,6.98,5.92,12.95,12.35,18.52,19.07-.5-.46-1.01-.92-1.5-1.38-9.15-8.61-18.3-17.25-27.82-25.45Zm-521.05-44.08c31.16,3.96,64.22-2.89,95.31-5.98,32.52-3.23,65.99-7.65,98.44-1.48,38.03,7.23,71.06,27.26,103.83,47.6-84.18-32.01-179.1-33.46-266.98-18.8-42.03,7.01-83.35,17.28-124.55,28.07,1.12-.42,2.24-.83,3.36-1.27,32.33-12.59,61.54-29.81,90.6-48.15Zm281.24,9.23c-25.65-15.24-52.85-29.44-82.34-35.41-31.74-6.43-64.22-3.11-96.12.09-17.45,1.75-34.9,3.51-52.36,5.26-6.93.7-13.8,1.28-20.62,2.07,29.47-17.88,60.92-33.15,96.13-33.46,44.73-.39,87.63,19.6,126.24,40.35,26.77,14.39,52.26,30.98,76.3,49.49-15.64-9.82-31.66-19.14-47.23-28.39Zm-1.25-25.77c-37.25-22.97-78.42-44.24-121.96-51.66-41.45-7.06-80.06,1.81-116.82,21.32-36.7,19.46-69.37,45.56-106.61,64.11-35.51,17.69-73.63,29.72-112.73,36,20.19-11.66,39.45-25.22,58.02-39.63,49.97-38.78,96.56-83.03,154.43-110.16,29.03-13.61,60.73-22.3,92.99-21.22,31.48,1.05,61.68,11.62,89.18,26.5,31.56,17.08,59.56,39.43,87.25,62.04,29.38,23.99,57.97,48.9,85.82,74.64-.49.64-.98,1.29-1.47,1.93-3.01,3.9-6.78,8.14-10.48,12.61-29.68-28.96-62.3-54.69-97.61-76.47Zm208.57,22.69c19.92-62.46,65.53-113.66,126.38-138.79,33.95-14.02,70.91-19.34,107.48-17.38,12.79.68,25.48,2.28,38.03,4.75-50.97-2.45-101.36,6.9-147.2,36.56-45.53,29.46-86.31,73.16-116.83,117.91-2.62-1.1-5.24-2.12-7.86-3.05Zm823.1-18.44c1.52,1.41,3.58,1.93,5.5,1.71,1.39,5.63,2.9,11.24,4.54,16.82-50.89,8.53-102.96-.96-154.19,4.77-53.6,6-105.12,19.81-159.44,19.98-101.98.31-203.4-24.56-305.25-8.47-45.55,7.2-92.12,22.84-127.54,53.27-3.4-5.55-7.29-10.95-11.56-16.15,32.95-62.58,106.61-87.05,174.12-83.8,87.53,4.22,168.94,43.07,255.98,51.19,44.47,4.15,89.22-.14,130.03-18.95,63.23,2.74,126.61-4.29,187.81-20.36Zm-453.6-4.6c-75.96-19.75-156.71-34.18-230.95-.38-30.66,13.96-57.54,36.13-73.26,65.94-5.15-5.26-10.68-10.23-16.47-14.85,66.06-71.28,159.44-116.92,258.11-107.9,56.78,5.19,106.25,34.55,159.64,51.9,42.89,13.94,87.34,23.14,132.22,27.64-74.83,21.14-155.94-3.28-229.3-22.35Zm376.41-556.51c-.48,37.77,1.05,75.46,3.93,113.13,1.14,14.9,2.91,29.72,4.82,44.53-4.58-18.5-8.8-37.09-12.41-55.82-6.5-33.76-10.69-67.83-11.53-102.09.11,0,.2.03.31.04,4.96.07,9.92.15,14.88.22Zm-29.07-31.16c-5.11,143.85,53.01,278.94,82.37,418.18-1.95.8-3.59,2.35-4.13,4.6-2.73,11.33,2.86,23.15,6.01,34.05,3.25,11.24,6.67,22.42,10.3,33.54,2.77,21.01,5.42,42.05,8.92,62.91-56.17-148.24-86.82-303.69-110.18-460.29-4.64-31.08-8.95-62.21-13.13-93.35,6.61.14,13.22.26,19.83.35Zm-68.31-44.28c9.75-.89,19.5-1.77,29.26-2.66,1.5,11.58,3.01,23.16,4.54,34.75-2.61,3-2.12,8.35,1.41,10.6,20.34,152.6,44.64,305.05,88.77,452.81,12.92,43.26,27.72,85.89,44.55,127.77-59.13,15.2-120.34,21.64-181.21,19.28-1.54-.63-3.3-.77-5.14-.2-55.9-2.62-111.45-12.67-164.76-30.2-51.95-17.08-100.03-43.94-155.29-49.17-48.72-4.61-96.97,5.18-142.11,23.25-49.16,19.68-93.38,50.14-128.04,90.16-7.56-5.36-15.45-10.11-23.46-14.11,33.9-36.34,62.33-76.55,103.21-106.08,45.52-32.89,99.07-45.75,154.79-42.42,17.88,1.07,35.38,3.6,52.6,7.21,2.58.71,5.17,1.3,7.76,1.73,89.77,20.57,172.33,69.11,262.07,90.52,58.92,14.06,121.09,16.35,178.68-4.63.39,1.08.75,2.17,1.14,3.25,2.55,7.14,14.07,3.94,11.38-3.14-62.77-165.17-104.63-339.39-129.79-514.17-4.53-31.44-8.37-62.97-11.62-94.56.41.04.83.05,1.29.01Zm-707.34-142.84c18.41-40.88,44.19-75.72,83.6-98.62,45.15-26.24,97.68-29.52,147.78-17.52,50.93,12.19,96.65,37.73,139.52,67.16,41.72,28.64,80.6,66.09,127.64,85.81,45.6,19.12,95.89,18.97,144.27,12.77,3.08,83.62,17.77,166.16,36.83,247.52,20.04,85.56,43.09,170.69,66.16,255.48,6.61,24.3,13.3,48.57,19.95,72.85,6.45,23.56,10.86,49.46,20.98,71.71,2.65,5.83,12.95,3.06,12.28-3.33-2.12-20.37-9.61-40.63-14.94-60.38-5.9-21.88-11.8-43.76-17.7-65.64-11.55-42.84-23.91-85.45-35.93-128.16-23.26-82.62-45-166.14-59.66-250.77-5.56-32.13-9.95-64.49-12.95-96.97,9.87.11,19.75.22,29.62.31,15.46,175.46,47.99,349.64,100.58,517.81,13.39,42.82,27.31,85.41,42.14,127.74-112.25,46.32-231.73-12.27-336.28-52.3-31.57-12.09-64.78-22.98-98.46-30.26-12.87-9.15-31.59-13.23-45.93-16.88-19.24-4.9-39.13-7.87-58.98-8.56-37.48-1.32-75.39,5.35-109.84,20.24-61.48,26.57-113.97,79.55-133.36,144.32-5.39-1.34-10.82-2.21-16.19-2.51-.32-3.47-.72-6.94-1.17-10.41.7-5.14,1.48-10.27,2.67-15.36,3.31-14.09,8.51-27.81,15.38-40.55,14.12-26.19,35.8-45.67,59.74-62.77,46.24-33.02,97.15-66.12,155.03-72.05,119.29-12.24,222.44,72.28,332.2,104.01,62.12,17.95,130.25,26.97,194.78,19.53,8.69-1,9.21-14.22,0-13.97-63.32,1.74-124.94-1.8-186.39-18.55-61.52-16.76-117.4-46.92-175.92-71.43-54.83-22.96-114.67-40.31-174.63-32.04-57.91,7.98-109.62,40.92-156.22,74.35-24.77,17.77-47.03,38.18-61.9,65.14-4.06,7.37-7.89,15.55-11.09,24.13-.84-5.08-1.66-10.16-2.35-15.21-3.73-27.16-6.84-54.4-9.17-81.72-4.41-51.8-5.37-103.78-3.79-155.73,1.57-51.69,2.12-103.3-.16-154.99-2.32-52.55-6.7-104.97-9.73-157.48-3.38-58.41-2.97-116.12-.81-174.52.98-.3,1.86-1,2.4-2.21Zm-529.07,65.66c45.45-15.1,88.05-37.9,128.19-63.79,41.4-26.7,80.11-57.04,119.56-86.46,20.08-14.97,41.29-29.72,65.61-36.78,24.84-7.21,50.54-4.45,74.68,4.04,56.68,19.94,89.41,69.31,128.63,111.19-2.09,1.05-3.76,3.02-4.08,5.92-5.78,51.87-3.12,105.28-.27,157.27.56,10.21,1.2,20.42,1.87,30.63-17.96-33.44-45.58-63.59-73.51-85.97-19.8-15.87-41.37-29.45-64.56-39.83-21.12-9.45-49.87-22.61-73.38-16.67-4.97,1.26-5.33,7.84-1.36,10.43,9.84,6.41,21.45,8.52,32.54,11.88,11.46,3.47,22.8,7.61,33.76,12.43,22.22,9.76,43.37,22.45,62.33,37.61,18.17,14.53,34.64,31.35,48.99,49.66,15.75,20.1,25.89,42.12,37.63,64.51.21.4.45.76.71,1.09,1.99,27.23,4.04,54.45,5.74,81.7,3.27,52.62,4.24,104.84,1.07,157.48-3.18,52.92-3.96,105.19,0,158.1,2.16,28.86,5.27,57.65,9.06,86.34,2.2,16.7,3.92,34.05,6.56,51.13-12.98-21.96-20.98-46.78-30.84-70.35-11.35-27.13-26.4-51.85-46.68-73.26-40.8-43.08-96.46-70.25-153.26-85.25-63.05-16.65-131.64-20.59-195.24-4.69-31.8,7.95-62.22,21.27-89.09,40.11-29.44,20.65-54.87,46.42-80.71,71.25-31.91,30.67-63.5,61.68-95.52,92.22-23.68,22.59-49.18,44.66-79.6,56.89,6.77-17.71,11-36.87,15.83-54.94,6.31-23.62,11.92-47.42,17.2-71.29,10.39-47.02,18.66-94.49,25.42-142.16,13.56-95.53,21.18-191.77,27.44-288.02,1.75-26.94,3.4-53.89,5.05-80.84.91-14.85,1.9-29.69,2.58-44.55.41-8.97,1.9-18.23.51-27.02,46.41.15,93.04-5.38,137.15-20.04Zm-151.55,76.75c-1.49,23.99-2.98,47.97-4.52,71.95-3.1,48.29-6.43,96.56-10.59,144.77-8.31,96.34-19.95,192.55-39.83,287.25-5.34,25.47-11.39,50.77-18.13,75.91-6.89,25.71-17.3,51.4-22.41,77.5-1.26.34-2.5.71-3.78,1.01-4.23,1-2.41,7.25,1.78,6.45.88-.17,1.74-.38,2.62-.56,2.37,3.48,7.75,4.79,10.07-.02.46-.95.85-1.93,1.29-2.89,57.28-17.28,101.05-69.6,142.97-109.15,52.91-49.92,104.11-110.67,173.39-137.84,62.58-24.55,133.08-25.01,198.31-11.87,59.19,11.92,118.19,36.22,162.66,77.99,25.63,24.07,43.52,52.96,56.47,85.49,3.25,8.16,6.37,16.37,9.61,24.52-10.43-12.23-21.87-23.8-32.12-34.87-19.92-21.5-41.01-41.96-64.12-60.04-48.08-37.63-104.33-60.66-164.86-68.32-59.04-7.46-125.37-4.51-175.72,30.72-27.04,18.92-50.16,43.56-74.15,66.06-24.55,23.03-48.91,46.27-73.9,68.83-50.13,45.27-115.56,91.64-185.68,73.81,16.15-36.07,21.22-77.41,26.83-116.07,6.79-46.85,13.52-93.72,20.11-140.6,12.96-92.26,25.23-184.63,35.52-277.23,5.61-50.49,10.74-101.06,14.73-151.71,4.93-.51,9.87-1.03,14.8-1.54-.48,6.82-.93,13.64-1.35,20.46Zm-95.94,524.55c-3.44,23.99-6.62,48.05-11.19,71.85-4.36,22.68-11.03,44.2-18.24,66-8.24-.66-11.24,13.02-2.13,16.21,57.42,20.07,118.24-2.07,165.38-36.16,25.21-18.23,47.86-39.57,70.56-60.76,25.39-23.69,50.98-47.17,76.54-70.68,23.88-21.96,47.6-44.73,78.38-56.63,28.81-11.14,60.03-14.15,90.7-13.61,63.58,1.12,126.04,18.09,179.23,53.4,28.46,18.89,54,41.81,77.79,66.24,11.78,12.1,23.03,24.67,34.33,37.21,10.55,11.71,20.38,24.3,33.11,33.67.15.11.3.19.45.27,3.88,6.74,8.2,13.24,13.08,19.44-7.84,1.82-15.31,5.17-22.12,10.25-25.01-21.09-49.82-42.58-70.06-68.45-19.85-25.37-37.44-51.3-63.56-70.84-49.18-36.8-111.97-51.45-172.68-48.14-62.89,3.43-132.9,22.21-183.8,60.58-46.56,35.11-77.03,86.48-121.94,123.3-55.83,45.78-134.87,54.43-198.61,19.71-.14-.07-.27-.1-.4-.17,3.3-40.44,7.38-80.82,17.16-120.3,10.42-42.05,24.04-82.85,29.65-125.98,5.82-44.81,8.94-90.02,13.71-134.95,4.8-45.18,10.04-90.31,15.75-135.38,6.33-49.9,13.24-99.72,20.02-149.56,4.09-.1,8.18-.22,12.27-.36-15.48,171.96-38.89,342.91-63.4,513.82Zm2.88-253.15c-4.78,45.87-8.59,91.83-13.08,137.72-4.55,46.53-17.09,89.84-28.96,134.82-12.86,48.75-17.43,98.69-21.41,148.8-.66,8.37,11.29,8.97,13.74,1.95,49.72,24.43,108.86,26.7,160.13,5.08,53.88-22.71,88.67-70.55,126.78-112.51,20.59-22.67,42.85-43.79,70.12-58.21,29.75-15.74,63.14-25.92,96.03-32.65,65.33-13.35,135.57-8.73,194.12,25.32,31.42,18.27,53.63,43.9,75.6,72.31,22.91,29.62,50.13,53.84,78.89,77.47-3.47,3.79-6.75,7.81-9.91,11.91-46.23-44.35-94.36-88.96-148.22-123.84-51.14-33.12-109.21-52.04-170.1-38.62-125.64,27.7-197.04,152.04-316.35,191.97-65.46,21.91-138.76,12.15-197.23-23.9,27.96-165.53,53.31-331.49,73-498.23,5.64-47.77,10.92-95.58,15.89-143.42,9.47-.51,18.94-1.01,28.4-1.52-10.86,74.95-19.59,150.21-27.44,225.52Zm16.99,595.24c-64.25,15.39-128.5,30.82-192.75,46.23-.73-4.33,2.55-34.1,2.78-37.31,1.04-14.28,2.24-28.55,3.61-42.8,2.81-29.38,6.3-58.7,10.35-87.94,7.88-56.85,17.75-113.4,28.35-169.8,21.06-112.12,45.75-223.57,63.73-336.25,9.63-60.35,17.13-121.02,21.43-181.99,9.35.31,18.69.62,28.04.93-18.37,168.12-40.77,335.78-66.17,502.98-6.58,43.32-13.93,86.52-21.45,129.69-.87,1.73-1.28,3.71-.98,5.63-.69,3.94-1.37,7.88-2.06,11.82-1.65,9.42,12.81,13.44,14.42,3.98.26-1.51.51-3.02.77-4.53,47.85,27.31,104.07,38.38,158.81,31.12,20.67-2.74,40.29-8.3,59.07-15.85,1.42,1.32,3.41,2.13,6.02,1.94,11.63-.84,23.21-2.14,34.73-3.89-34.31,8.5-68.82,16.1-103.88,21.21-59.67,8.69-120.7,9.5-179.52-4.85,5.83-28.35,11.28-56.74,16.56-85.2,5.48-29.58,12.99-60.15,14.12-90.25.11-2.92-3.93-3.14-4.83-.65-10.45,28.7-15.06,60.33-21.23,90.2-6.09,29.47-11.96,58.94-17.42,88.53-2.91,4.46-2.13,11.47,4.54,13.19,213.11,55.06,413.09-81.66,625.07-73.48,59.95,2.31,117.55,17.13,174.4,35.4,2.52.81,4.64-.56,5.71-2.52,7.57,4.27,15.22,8.32,23,11.99,4.72,2.22,8.64-.26,9.84-3.8.25.23.52.46.77.69-1.03,1.68-1.97,3.37-2.77,5.08-1.14-.41-2.42-.58-3.84-.35-231.57,37.25-461.14,86.22-689.19,140.86Zm701.53-109.76c1.42-.62,2.69-1.63,3.62-3.11,3.89-6.13,7.35-12.43,10.84-18.66-4.48,9.76-8.92,19.54-13.23,29.37-.56-2.55-1.03-5.09-1.24-7.6Zm15.2,83.46c-4.7-2.91-7-6.94-8.11-11.48,2.74,1.21,6.41.55,7.96-2.36.83-1.83,1.88-3.52,3.16-5.06,1.46-2.02.61-4.16-1.03-5.38,4.35-20.48,14.84-39.34,23.57-58.34,9.4-20.48,19.31-40.71,29.63-60.73,3.12-6.05-5.81-11.36-9.17-5.36-12.95,23.1-25.52,46.47-37.01,70.33-5.35,11.11-13.65,24.78-18.09,38.5-.2-3.94-.51-7.86-.9-11.78,12.16-23.92,22.97-48.59,34.27-72.91,2.25-4.84-.85-9.32-4.67-10.78,1.03-1.13,2.08-2.24,3.19-3.32,12.96-12.74,29.7-21.15,47.44-19.94-.63.66-1.16,1.46-1.54,2.44-10.5,26.83-20.92,53.67-31.06,80.64-4.92,13.08-9.85,26.17-14.77,39.26-2.83,7.53-8.13,16.47-9.64,25.05-.02-.01-.04-.02-.05-.04-6.12-4.97-17.79,1.78-12.05,9.3,1.22,1.6,2.56,3,3.95,4.32-1.74-.59-3.44-1.34-5.06-2.35Zm67.85.91c.26-.88.29-1.82-.04-2.62-.11-.26-.23-.46-.35-.66,9.26-19.48,16.16-40.42,23.96-60.47,8.83-22.68,17.86-45.15,25.18-68.36,1.85-5.86-7.33-9.93-10.07-4.24-10.1,20.97-18.58,42.47-27.28,64.06-9.01,22.38-19.73,44.84-26.63,67.96-.31,1.04-.31,2.23-.05,3.38-1.8-.14-3.6-.3-5.42-.48,4.13-8.85,7-18.47,10.41-27.52,4.72-12.54,9.5-25.05,14.04-37.66,9.07-25.18,18.58-50.17,25.84-75.93,1.32-4.7-5.88-8.04-8.09-3.41-11.06,23.14-20.06,47.06-29.48,70.92-4.92,12.47-9.66,25.01-14.39,37.56-4.16,11.04-9.58,22.34-12.45,33.87-2.29-.51-4.54-1.1-6.69-1.8,4.53-6.68,6.35-16.02,9.09-23.23,5.26-13.84,10.53-27.68,15.79-41.52,10.52-27.67,20.77-55.42,30.92-83.23.52-1.42.55-2.69.27-3.8,19.48,6.19,35.35,19.05,50.52,33.07-2.23-.3-4.73.68-5.8,3.33-8.51,21.12-16.69,42.31-24.55,63.68-3.93,10.66-7.85,21.32-11.78,31.98-3.09,8.4-7.7,17.18-8.07,26.18-3.38-.23-6.77-.44-10.14-.72-1.51-.13-3.11-.23-4.76-.34Zm45.27,2.37c9.25-13.6,12.86-33.2,18.05-48.37,6.77-19.76,13.57-39.35,19.06-59.5.22-.82.18-1.6-.01-2.32,4.16,3.89,8.35,7.71,12.63,11.34-1.32.21-2.54,1.07-3.1,2.78-5.86,17.8-12.6,35.27-18.76,52.97-3.07,8.83-6.3,17.61-9.68,26.34-2.18,5.64-4.97,11.09-6.35,16.86-3.95,0-7.89-.02-11.84-.1Zm67.29-9.49c-2.17,7.35-7.97,7.61-13.75,7.97,1.55-4.5,2.17-9.49,3.63-14,2.43-7.52,5.55-14.96,9.03-22.1.26,4.77.51,9.55.71,14.32.14,3.48,1.39,10.36.37,13.81Zm-1.74-38.95c-2.15-.97-4.93-.63-6.78,1.92-5.59,7.72-10,15.62-13.34,24.56-2.31,6.18-5.9,14.35-5.21,21.38-4.15.22-8.31.4-12.46.5,5.81-11.55,8.89-26.25,12.49-37.19,6.11-18.53,10.25-37.56,14.14-56.66.07-.36.1-.69.09-1.02,2.58,2.06,5.21,4.04,7.88,5.91-7.26,3.34-8.87,15.53.72,17.13.27.04.53.09.8.13.61,7.77,1.16,15.55,1.66,23.34Zm527.07,37.15c-111.41-23.83-223.06-46.26-335.13-66.75-52.44-9.59-104.99-18.47-157.62-26.96,39.24-20.71,83.58-30.68,127.47-36.11,53.59-6.63,107.92-5.93,161.68-1.94,108.92,8.08,216.27,29.96,325.13,38.59,57.15,4.53,114.4,5.67,171.38-.91,5.65,30.31,8.95,60.99,14.66,91.29,5.32,28.26,12.44,56.08,20.57,83.64-52.88-18.07-108.5-30.03-162.91-42.44-55.14-12.58-109.93-26.57-165.24-38.4Z"/></svg>