<?xml version="1.0" encoding="utf-8"?>
<!-- Generator: Adobe Illustrator 27.1.0, SVG Export Plug-In . SVG Version: 6.00 Build 0)  -->
<svg version="1.1" id="Layer_1" xmlns="http://www.w3.org/2000/svg" xmlns:xlink="http://www.w3.org/1999/xlink" x="0px" y="0px"
	 viewBox="0 0 1975.3 1257.1" style="enable-background:new 0 0 1975.3 1257.1;" xml:space="preserve">
<style type="text/css">
	.st0{fill:#DBA845;}
</style>
<path class="st0" d="M985,660.1c8.2-11.1,12.3-25.4,19.4-37.3c7.6-12.7,16.2-24.7,26.1-35.7c9.8-11,20.8-21.1,32.7-29.8
	c10.3-7.5,24-13.1,32-23.1c1.9-2.4,0.9-6.7-2.7-6.5c-14.5,0.4-28.3,11.6-39.4,20c-12.2,9.2-23.6,19.5-33.8,31
	c-10.2,11.4-19.4,23.8-27,37.1c-7,12.3-15.9,27.4-16.6,41.8C975.4,663,982.3,663.8,985,660.1L985,660.1z"/>
<path class="st0" d="M392.9,297.6c35.1,5,68.4-6,99.3-22c33.3-17.3,65-36.3,99.6-51c2.5-1.1,1.3-5.7-1.4-5.3
	c-33.1,4.2-61.6,23.4-90.3,39.2c-32.6,17.9-67.8,33.7-105.8,28.7C388.5,286.4,387,296.8,392.9,297.6L392.9,297.6z"/>
<path class="st0" d="M400.2,339.6c18.7,0.1,37.2,5.6,55.9,2.8c13.9-2,26.6-8.4,38.3-15.9c12.2-7.8,23.3-17.1,35.5-25
	c13.3-8.6,26.4-11.6,41.2-16.1c3.3-1,3.6-6.2,0-7c-25.5-6-52,18.1-70.7,31.9c-12,8.8-24.3,17.8-38.7,22c-20,5.9-41.1,0.4-61.5,1.7
	C396.7,334.3,396.6,339.6,400.2,339.6L400.2,339.6z"/>
<path class="st0" d="M573.6,327.4c-27.9-7.4-56.9,15.8-78,30.8c-13,9.2-26.3,18.7-41.6,23.7c-18.1,6-37.3,6-56.1,5.8
	c-6.7-0.1-6.7,10.2,0,10.4c33.1,1,61.5-2.3,89.7-20.8c12.7-8.4,24.5-18.1,37.5-26.1c15.7-9.6,30.9-13.2,48.5-17.2
	C576.9,333.2,576.8,328.2,573.6,327.4L573.6,327.4z"/>
<path class="st0" d="M1297.1,185.4c23.5,8.9,48,14.2,70.7,25.8c22,11.2,39.5,27.9,60.4,40.4c19.8,11.8,43.1,12.9,65.5,13.8
	c13.7,0.5,27.3,1.1,41,1.4c13.2,0.3,27.1,2.3,39.9-1.7c4.9-1.5,4.4-7.7,0-9.5c-11.8-4.7-25-4-37.5-4.7c-12.9-0.8-25.7-1.4-38.6-1.9
	c-13.3-0.6-26.8-0.6-39.9-3.4c-13.9-3-24.7-9.6-35.7-18.3c-34.2-26.8-79.6-54.2-124.2-53.7C1291.6,173.7,1291,183.1,1297.1,185.4
	L1297.1,185.4z"/>
<path class="st0" d="M1938.6,1034.1c-0.9-4.9-1.8-9.8-2.8-14.6c11-2,9.2-17.3-2-16.3c-0.8-1.6-1.7-3.1-2.6-4.7
	c-10.2-44-24-87.1-36.7-130.4c-16.8-57.4-30.5-114.5-38-173.9c-7.1-56.5-12-113.3-21.2-169.5c-5.2-31.6-12.9-62.5-19.8-93.8
	c-7.4-34-12.2-68.7-3.5-103c1.2-4.9-2.3-8.4-6.8-9c-14.1-1.8-28.2-3.6-42.4-5.4c-9.1-1.1-9.1,13.3,0,14.4
	c11.3,1.4,22.5,2.7,33.8,4.1c-10.4,53.4,7.7,106.1,18.8,158.2c12.7,59.3,18.3,119.8,25.8,179.9c7.2,57.9,17.2,115.1,33.1,171.3
	c10.4,36.9,22.6,73.3,33.1,110.2c-10.2-22.9-19.5-46.2-28.5-69.6c-8.8-22.8-16.9-45.8-24.4-69.1c-3.1-9.5-6.1-19.1-9-28.7
	c-4.6-29-10.3-57.8-17.4-86.5c-11.2-45.4-24.7-90.2-37-135.3c-1.7-30.3-1.7-60.5-3.5-90.8c-2.4-39.9-4.1-79.9-3.6-119.9
	c0.1-3.7-3.2-6.8-6.8-6.9c-7.3-0.1-14.5-0.1-21.8-0.2c-0.2,0-0.3,0-0.5,0c0-8.1,0.2-16.2,0.6-24.3c0.2-3.9-3.4-7-7.1-7.1
	c-9.7-0.1-19.3-0.2-29-0.2c-1.8-13.2-3.5-26.5-5.2-39.7c-0.4-3.2-2.7-6.9-6.5-6.5c-11.6,1.1-23.2,2.1-34.9,3.2
	c-0.9,0.1-1.8,0.4-2.5,0.7c-1.5-15.1-2.8-30.2-4.1-45.2c-0.3-3.8-2.9-6.9-7-7c-12.4-0.1-24.8-0.1-37.2-0.2
	c-0.8-10.1-1.4-20.1-1.9-30.2c1.2-0.2,2.3-0.3,3.5-0.5c8.3-1.3,4.8-14-3.5-12.7c-2,0.3-3.9,0.6-5.9,0.9c-1-0.1-2,0.1-2.9,0.4
	c-51.2,7.2-105.7,7.7-152.9-15.8c-23.9-11.9-45.1-28.7-66.4-44.6c-21.7-16.1-43.4-32-66.1-46.7c-81.3-52.6-187.9-89.8-279.5-39.5
	c-39,21.4-73.9,58.2-87.8,101.2c-46.8-79.6-138-164.5-235.9-117.6c-22.8,11-42.9,26.9-62.9,42.2c-20.5,15.6-41,31.1-61.9,46
	c-42.1,30-86.2,58.4-134,78.3c-25.8,10.7-52.7,19-80.3,23.9c-33.8,6-67.7,4.9-101.8,6.4c-10,0.4-10,15.2,0,15.5
	c2.6,0.1,5.2,0.1,7.8,0.2c-1.6,6.3-1.7,12.9-2.2,19.7c0,0.2,0,0.4,0,0.5c-7.9,0.7-15.7,1.3-23.6,2c-4.7,0.4-7.9,3.5-8.2,8.2
	c-0.6,7.5-1.3,14.9-1.9,22.4c-6.8-0.1-13.5-0.2-20.2-0.2c-3.1,0-6.9,2.4-7.4,5.7c-1.5,9.7-3,19.4-4.4,29.1
	c-12.5,0.6-25,1.2-37.5,1.8c-4.5,0.2-7.2,3.4-7.7,7.7c-0.1,1.2-0.3,2.5-0.4,3.7c-12-0.4-24.1-0.9-36.1-1.3c-4-0.1-6.8,3.3-7,7
	c-16.6,241-85.3,473.8-118.1,712.4c-4.4,32.2-8.3,64.6-11.1,97c-1.4,16.4-3.9,33.5-3.6,50c0.1,6.8,2.8,13.5,8.4,16.1
	c1.6,3.1,4.8,5.3,9.1,4.3c228.4-54.4,456.8-108.4,687.5-152.4c65.3-12.5,130.6-24.9,196-36.9c0.1,0.1,0.2,0.2,0.2,0.2
	c-1,2.4-2,4.7-3,7c-0.3,0.9-0.5,1.7-0.5,2.4c-0.6,0-1.2,0-1.8,0.1c-226.9,41.5-451.2,98.1-674.8,154.6
	c-31.3,7.9-62.6,15.8-93.8,23.8c-16,4.1-32.1,8.2-48.1,12.3c-8,2-57.1,18.4-53.2,0c1.9-8.8-10.6-12.3-13.5-3.7
	c-2.7,8.1-0.5,15.9,5.8,21.7c8.7,8,20.7,7.2,31.4,4.9c30.6-6.4,60.8-15.6,91.1-23.4c60.9-15.6,121.7-31.8,182.7-47
	c122-30.3,244.5-59,367.4-85.6c69-15,138.2-29.3,207.5-43.2c0.8,4.9,2.4,9.8,3,14.4c0.4,2.7,0.6,5.4,0.8,8.1
	c-0.9,2.3-1.8,4.5-2.7,6.8c-1.2,3.1,0.5,5.6,3,6.8c0,10.3-0.3,20.6,1.4,30.5c4.3,24.3,33,31.1,53.6,24.1c9.5,1.7,19.4,2.1,28.5,2.9
	c28.2,2.6,56.4,2.5,84.6-0.1c15.6-1.4,43.2,0.2,47.2-19.7c2.6-12.9-0.8-29.3-1.9-42.4c-0.6-7.3-1.4-14.6-2.4-21.9
	c215.1,36.1,428.1,81.2,638.8,137.5c29.8,8,59.7,16,89.3,24.7c30.3,8.9,60.6,19.5,91.8,24.6c4.3,0.7,8-5.6,3.3-7.7
	c-24.1-10.9-49.7-17.8-75.2-25c-27.4-7.7-54.7-15.5-82.1-23.2c-54-15.1-108.1-29.9-162.6-43.3c-107.3-26.5-215.1-50.9-323.4-72.9
	c-59-12-118.2-23-177.7-33c0.3-0.9,0.5-1.8,0.5-2.7c220.6,32.8,440.6,73.9,657.4,126.2c62,15,123.7,33.6,186.5,44.9
	c0.3,0.1,0.6,0.1,0.9,0.1c-0.3,0.2-0.6,0.5-0.8,0.8c-9.7,12.3-21.1,28.7-23.4,44.5c-0.6,4,3.5,6.6,6.7,3.9
	c12.3-10.2,20.3-28.5,25.8-43.2c0.1-0.2,0.1-0.4,0.1-0.5c3.5-0.3,6.8-3.3,5.4-7.6C1956.7,1148.9,1949,1091.6,1938.6,1034.1
	L1938.6,1034.1z M1894.9,965c6.3,13,12.3,29.3,22.6,40.2c-215.8,26.6-428.6-57.3-644.8-33.8c-53.8,5.8-108.3,17.1-154.2,46.7
	c-0.7-0.1-1.4-0.2-2.1-0.3c-0.2-0.3-0.3-0.6-0.4-0.9c35.9-24.7,74.9-41,117.9-48.8c46.1-8.3,93.2-7.7,139.7-4.1
	c55,4.3,109.9,12.1,165.2,12.6c53.2,0.5,103.5-11.3,155.9-18.1c55.8-7.2,112.6,3.6,168.1-6.1c4.3,4,12.5,1.4,12.7-4.5
	c2.1-3.4,0.7-8.6-2.9-10.7c-5-16.3-8.8-32.9-11.9-49.6c1.1,2.8,2.2,5.6,3.3,8.4C1873.6,919.3,1884,942.3,1894.9,965L1894.9,965z
	 M1027.3,1126.1c-2-0.1-4-0.2-6-0.3c3.2-5.7,4.9-12.2,7.1-18.6c4-11.5,7.9-23,11.9-34.4c7.7-22.2,15-44.4,22.1-66.9
	c0.2-0.8,0.3-1.5,0.2-2.2c3.1,2.9,6.2,5.8,9.2,8.8c-1.9-0.5-3.9,0.1-4.9,2.3c-8,18.1-14.8,36.4-21.6,54.9
	c-3.5,9.4-6.9,18.8-10.4,28.2c-3.2,9-7.7,18.2-7.7,27.8C1027.3,1125.9,1027.3,1126,1027.3,1126.1L1027.3,1126.1z M1056.8,976.1
	c-1.7-1.5-3.5-3-5.3-4.4c5.6,3.8,11,7.9,16.1,12.2c7,5.9,12.9,12.3,18.5,19.1c-0.5-0.5-1-0.9-1.5-1.4
	C1075.4,993,1066.3,984.3,1056.8,976.1z M535.7,932c31.2,4,64.2-2.9,95.3-6c32.5-3.2,66-7.7,98.4-1.5c38,7.2,71.1,27.3,103.8,47.6
	c-84.2-32-179.1-33.5-267-18.8c-42,7-83.4,17.3-124.5,28.1c1.1-0.4,2.2-0.8,3.4-1.3C477.5,967.6,506.7,950.4,535.7,932L535.7,932z
	 M817,941.3c-25.7-15.2-52.8-29.4-82.3-35.4c-31.7-6.4-64.2-3.1-96.1,0.1c-17.5,1.8-34.9,3.5-52.4,5.3c-6.9,0.7-13.8,1.3-20.6,2.1
	c29.5-17.9,60.9-33.2,96.1-33.5c44.7-0.4,87.6,19.6,126.2,40.3c26.8,14.4,52.3,31,76.3,49.5C848.6,959.8,832.5,950.5,817,941.3z
	 M815.7,915.5c-37.2-23-78.4-44.2-122-51.7c-41.5-7.1-80.1,1.8-116.8,21.3c-36.7,19.5-69.4,45.6-106.6,64.1
	c-35.5,17.7-73.6,29.7-112.7,36c20.2-11.7,39.5-25.2,58-39.6c50-38.8,96.6-83,154.4-110.2c29-13.6,60.7-22.3,93-21.2
	c31.5,1,61.7,11.6,89.2,26.5c31.6,17.1,59.6,39.4,87.2,62c29.4,24,58,48.9,85.8,74.6c-0.5,0.6-1,1.3-1.5,1.9
	c-3,3.9-6.8,8.1-10.5,12.6C883.7,963,851,937.3,815.7,915.5L815.7,915.5z M1024.3,938.2c19.9-62.5,65.5-113.7,126.4-138.8
	c33.9-14,70.9-19.3,107.5-17.4c12.8,0.7,25.5,2.3,38,4.8c-51-2.5-101.4,6.9-147.2,36.6c-45.5,29.5-86.3,73.2-116.8,117.9
	C1029.5,940.1,1026.9,939.1,1024.3,938.2L1024.3,938.2z M1847.4,919.7c1.5,1.4,3.6,1.9,5.5,1.7c1.4,5.6,2.9,11.2,4.5,16.8
	c-50.9,8.5-103-1-154.2,4.8c-53.6,6-105.1,19.8-159.4,20c-102,0.3-203.4-24.6-305.2-8.5c-45.6,7.2-92.1,22.8-127.5,53.3
	c-3.4-5.5-7.3-11-11.6-16.2c32.9-62.6,106.6-87,174.1-83.8c87.5,4.2,168.9,43.1,256,51.2c44.5,4.2,89.2-0.1,130-19
	C1722.8,942.9,1786.2,935.8,1847.4,919.7L1847.4,919.7z M1393.8,915.1c-76-19.8-156.7-34.2-230.9-0.4c-30.7,14-57.5,36.1-73.3,65.9
	c-5.2-5.3-10.7-10.2-16.5-14.8c66.1-71.3,159.4-116.9,258.1-107.9c56.8,5.2,106.2,34.5,159.6,51.9c42.9,13.9,87.3,23.1,132.2,27.6
	C1548.2,958.6,1467.1,934.2,1393.8,915.1L1393.8,915.1z M1770.2,358.6c-0.5,37.8,1.1,75.5,3.9,113.1c1.1,14.9,2.9,29.7,4.8,44.5
	c-4.6-18.5-8.8-37.1-12.4-55.8c-6.5-33.8-10.7-67.8-11.5-102.1c0.1,0,0.2,0,0.3,0C1760.3,358.5,1765.2,358.6,1770.2,358.6
	L1770.2,358.6z M1741.1,327.5c-5.1,143.9,53,278.9,82.4,418.2c-1.9,0.8-3.6,2.3-4.1,4.6c-2.7,11.3,2.9,23.2,6,34
	c3.2,11.2,6.7,22.4,10.3,33.5c2.8,21,5.4,42,8.9,62.9c-56.2-148.2-86.8-303.7-110.2-460.3c-4.6-31.1-8.9-62.2-13.1-93.4
	C1727.9,327.2,1734.5,327.4,1741.1,327.5L1741.1,327.5z M1672.8,283.2c9.8-0.9,19.5-1.8,29.3-2.7c1.5,11.6,3,23.2,4.5,34.8
	c-2.6,3-2.1,8.4,1.4,10.6c20.3,152.6,44.6,305,88.8,452.8c12.9,43.3,27.7,85.9,44.6,127.8c-59.1,15.2-120.3,21.6-181.2,19.3
	c-1.5-0.6-3.3-0.8-5.1-0.2c-55.9-2.6-111.4-12.7-164.8-30.2c-51.9-17.1-100-43.9-155.3-49.2c-48.7-4.6-97,5.2-142.1,23.2
	c-49.2,19.7-93.4,50.1-128,90.2c-7.6-5.4-15.4-10.1-23.5-14.1c33.9-36.3,62.3-76.5,103.2-106.1c45.5-32.9,99.1-45.8,154.8-42.4
	c17.9,1.1,35.4,3.6,52.6,7.2c2.6,0.7,5.2,1.3,7.8,1.7c89.8,20.6,172.3,69.1,262.1,90.5c58.9,14.1,121.1,16.3,178.7-4.6
	c0.4,1.1,0.8,2.2,1.1,3.2c2.6,7.1,14.1,3.9,11.4-3.1c-62.8-165.2-104.6-339.4-129.8-514.2c-4.5-31.4-8.4-63-11.6-94.6
	C1672,283.2,1672.4,283.2,1672.8,283.2L1672.8,283.2z M965.5,140.4c18.4-40.9,44.2-75.7,83.6-98.6c45.2-26.2,97.7-29.5,147.8-17.5
	c50.9,12.2,96.7,37.7,139.5,67.2c41.7,28.6,80.6,66.1,127.6,85.8c45.6,19.1,95.9,19,144.3,12.8c3.1,83.6,17.8,166.2,36.8,247.5
	c20,85.6,43.1,170.7,66.2,255.5c6.6,24.3,13.3,48.6,19.9,72.8c6.4,23.6,10.9,49.5,21,71.7c2.7,5.8,12.9,3.1,12.3-3.3
	c-2.1-20.4-9.6-40.6-14.9-60.4c-5.9-21.9-11.8-43.8-17.7-65.6c-11.6-42.8-23.9-85.5-35.9-128.2c-23.3-82.6-45-166.1-59.7-250.8
	c-5.6-32.1-9.9-64.5-12.9-97c9.9,0.1,19.8,0.2,29.6,0.3c15.5,175.5,48,349.6,100.6,517.8c13.4,42.8,27.3,85.4,42.1,127.7
	c-112.2,46.3-231.7-12.3-336.3-52.3c-31.6-12.1-64.8-23-98.5-30.3c-12.9-9.2-31.6-13.2-45.9-16.9c-19.2-4.9-39.1-7.9-59-8.6
	c-37.5-1.3-75.4,5.3-109.8,20.2c-61.5,26.6-114,79.5-133.4,144.3c-5.4-1.3-10.8-2.2-16.2-2.5c-0.3-3.5-0.7-6.9-1.2-10.4
	c0.7-5.1,1.5-10.3,2.7-15.4c3.3-14.1,8.5-27.8,15.4-40.5c14.1-26.2,35.8-45.7,59.7-62.8c46.2-33,97.2-66.1,155-72
	c119.3-12.2,222.4,72.3,332.2,104c62.1,18,130.2,27,194.8,19.5c8.7-1,9.2-14.2,0-14c-63.3,1.7-124.9-1.8-186.4-18.5
	c-61.5-16.8-117.4-46.9-175.9-71.4c-54.8-23-114.7-40.3-174.6-32c-57.9,8-109.6,40.9-156.2,74.3c-24.8,17.8-47,38.2-61.9,65.1
	c-4.1,7.4-7.9,15.5-11.1,24.1c-0.8-5.1-1.7-10.2-2.3-15.2c-3.7-27.2-6.8-54.4-9.2-81.7c-4.4-51.8-5.4-103.8-3.8-155.7
	c1.6-51.7,2.1-103.3-0.2-155c-2.3-52.5-6.7-105-9.7-157.5c-3.4-58.4-3-116.1-0.8-174.5C964.1,142.3,964.9,141.6,965.5,140.4
	L965.5,140.4z M436.4,206c45.5-15.1,88-37.9,128.2-63.8c41.4-26.7,80.1-57,119.6-86.5c20.1-15,41.3-29.7,65.6-36.8
	c24.8-7.2,50.5-4.4,74.7,4c56.7,19.9,89.4,69.3,128.6,111.2c-2.1,1.1-3.8,3-4.1,5.9c-5.8,51.9-3.1,105.3-0.3,157.3
	c0.6,10.2,1.2,20.4,1.9,30.6c-18-33.4-45.6-63.6-73.5-86c-19.8-15.9-41.4-29.4-64.6-39.8c-21.1-9.4-49.9-22.6-73.4-16.7
	c-5,1.3-5.3,7.8-1.4,10.4c9.8,6.4,21.5,8.5,32.5,11.9c11.5,3.5,22.8,7.6,33.8,12.4c22.2,9.8,43.4,22.4,62.3,37.6
	c18.2,14.5,34.6,31.4,49,49.7c15.8,20.1,25.9,42.1,37.6,64.5c0.2,0.4,0.5,0.8,0.7,1.1c2,27.2,4,54.5,5.7,81.7
	c3.3,52.6,4.2,104.8,1.1,157.5c-3.2,52.9-4,105.2,0,158.1c2.2,28.9,5.3,57.7,9.1,86.3c2.2,16.7,3.9,34,6.6,51.1
	c-13-22-21-46.8-30.8-70.3c-11.3-27.1-26.4-51.8-46.7-73.3c-40.8-43.1-96.5-70.2-153.3-85.2c-63-16.7-131.6-20.6-195.2-4.7
	c-31.8,8-62.2,21.3-89.1,40.1c-29.4,20.7-54.9,46.4-80.7,71.2c-31.9,30.7-63.5,61.7-95.5,92.2c-23.7,22.6-49.2,44.7-79.6,56.9
	c6.8-17.7,11-36.9,15.8-54.9c6.3-23.6,11.9-47.4,17.2-71.3c10.4-47,18.7-94.5,25.4-142.2c13.6-95.5,21.2-191.8,27.4-288
	c1.8-26.9,3.4-53.9,5-80.8c0.9-14.9,1.9-29.7,2.6-44.6c0.4-9,1.9-18.2,0.5-27C345.7,226.2,392.3,220.6,436.4,206L436.4,206z
	 M284.9,282.8c-1.5,24-3,48-4.5,72c-3.1,48.3-6.4,96.6-10.6,144.8c-8.3,96.3-19.9,192.5-39.8,287.2c-5.3,25.5-11.4,50.8-18.1,75.9
	c-6.9,25.7-17.3,51.4-22.4,77.5c-1.3,0.3-2.5,0.7-3.8,1c-4.2,1-2.4,7.2,1.8,6.5c0.9-0.2,1.7-0.4,2.6-0.6c2.4,3.5,7.8,4.8,10.1,0
	c0.5-1,0.9-1.9,1.3-2.9c57.3-17.3,101.1-69.6,143-109.2c52.9-49.9,104.1-110.7,173.4-137.8c62.6-24.5,133.1-25,198.3-11.9
	c59.2,11.9,118.2,36.2,162.7,78c25.6,24.1,43.5,53,56.5,85.5c3.2,8.2,6.4,16.4,9.6,24.5c-10.4-12.2-21.9-23.8-32.1-34.9
	c-19.9-21.5-41-42-64.1-60c-48.1-37.6-104.3-60.7-164.9-68.3c-59-7.5-125.4-4.5-175.7,30.7c-27,18.9-50.2,43.6-74.1,66.1
	c-24.5,23-48.9,46.3-73.9,68.8c-50.1,45.3-115.6,91.6-185.7,73.8c16.1-36.1,21.2-77.4,26.8-116.1c6.8-46.8,13.5-93.7,20.1-140.6
	c13-92.3,25.2-184.6,35.5-277.2c5.6-50.5,10.7-101.1,14.7-151.7c4.9-0.5,9.9-1,14.8-1.5C285.7,269.1,285.3,276,284.9,282.8
	L284.9,282.8z M188.9,807.3c-3.4,24-6.6,48-11.2,71.8c-4.4,22.7-11,44.2-18.2,66c-8.2-0.7-11.2,13-2.1,16.2
	c57.4,20.1,118.2-2.1,165.4-36.2c25.2-18.2,47.9-39.6,70.6-60.8c25.4-23.7,51-47.2,76.5-70.7c23.9-22,47.6-44.7,78.4-56.6
	c28.8-11.1,60-14.2,90.7-13.6c63.6,1.1,126,18.1,179.2,53.4c28.5,18.9,54,41.8,77.8,66.2c11.8,12.1,23,24.7,34.3,37.2
	c10.5,11.7,20.4,24.3,33.1,33.7c0.2,0.1,0.3,0.2,0.5,0.3c3.9,6.7,8.2,13.2,13.1,19.4c-7.8,1.8-15.3,5.2-22.1,10.2
	c-25-21.1-49.8-42.6-70.1-68.5c-19.8-25.4-37.4-51.3-63.6-70.8c-49.2-36.8-112-51.5-172.7-48.1c-62.9,3.4-132.9,22.2-183.8,60.6
	c-46.6,35.1-77,86.5-121.9,123.3c-55.8,45.8-134.9,54.4-198.6,19.7c-0.1-0.1-0.3-0.1-0.4-0.2c3.3-40.4,7.4-80.8,17.2-120.3
	c10.4-42,24-82.8,29.6-126c5.8-44.8,8.9-90,13.7-135c4.8-45.2,10-90.3,15.8-135.4c6.3-49.9,13.2-99.7,20-149.6
	c4.1-0.1,8.2-0.2,12.3-0.4C236.8,465.4,213.4,636.4,188.9,807.3L188.9,807.3z M191.8,554.2c-4.8,45.9-8.6,91.8-13.1,137.7
	c-4.6,46.5-17.1,89.8-29,134.8c-12.9,48.8-17.4,98.7-21.4,148.8c-0.7,8.4,11.3,9,13.7,2c49.7,24.4,108.9,26.7,160.1,5.1
	C356.1,959.8,390.9,912,429,870c20.6-22.7,42.9-43.8,70.1-58.2c29.7-15.7,63.1-25.9,96-32.7c65.3-13.3,135.6-8.7,194.1,25.3
	c31.4,18.3,53.6,43.9,75.6,72.3c22.9,29.6,50.1,53.8,78.9,77.5c-3.5,3.8-6.8,7.8-9.9,11.9c-46.2-44.3-94.4-89-148.2-123.8
	c-51.1-33.1-109.2-52-170.1-38.6c-125.6,27.7-197,152-316.4,192c-65.5,21.9-138.8,12.2-197.2-23.9c28-165.5,53.3-331.5,73-498.2
	c5.6-47.8,10.9-95.6,15.9-143.4c9.5-0.5,18.9-1,28.4-1.5C208.4,403.6,199.7,478.8,191.8,554.2L191.8,554.2z M208.8,1149.4
	c-64.2,15.4-128.5,30.8-192.8,46.2c-0.7-4.3,2.5-34.1,2.8-37.3c1-14.3,2.2-28.6,3.6-42.8c2.8-29.4,6.3-58.7,10.4-87.9
	c7.9-56.8,17.8-113.4,28.4-169.8c21.1-112.1,45.8-223.6,63.7-336.2c9.6-60.4,17.1-121,21.4-182c9.4,0.3,18.7,0.6,28,0.9
	c-18.4,168.1-40.8,335.8-66.2,503c-6.6,43.3-13.9,86.5-21.4,129.7c-0.9,1.7-1.3,3.7-1,5.6c-0.7,3.9-1.4,7.9-2.1,11.8
	c-1.7,9.4,12.8,13.4,14.4,4c0.3-1.5,0.5-3,0.8-4.5c47.9,27.3,104.1,38.4,158.8,31.1c20.7-2.7,40.3-8.3,59.1-15.8
	c1.4,1.3,3.4,2.1,6,1.9c11.6-0.8,23.2-2.1,34.7-3.9c-34.3,8.5-68.8,16.1-103.9,21.2c-59.7,8.7-120.7,9.5-179.5-4.8
	c5.8-28.3,11.3-56.7,16.6-85.2c5.5-29.6,13-60.2,14.1-90.2c0.1-2.9-3.9-3.1-4.8-0.7c-10.4,28.7-15.1,60.3-21.2,90.2
	c-6.1,29.5-12,58.9-17.4,88.5c-2.9,4.5-2.1,11.5,4.5,13.2c213.1,55.1,413.1-81.7,625.1-73.5c60,2.3,117.5,17.1,174.4,35.4
	c2.5,0.8,4.6-0.6,5.7-2.5c7.6,4.3,15.2,8.3,23,12c4.7,2.2,8.6-0.3,9.8-3.8c0.2,0.2,0.5,0.5,0.8,0.7c-1,1.7-2,3.4-2.8,5.1
	c-1.1-0.4-2.4-0.6-3.8-0.3C666.4,1045.8,436.9,1094.8,208.8,1149.4L208.8,1149.4z M910.3,1039.6c1.4-0.6,2.7-1.6,3.6-3.1
	c3.9-6.1,7.3-12.4,10.8-18.7c-4.5,9.8-8.9,19.5-13.2,29.4C911,1044.7,910.5,1042.2,910.3,1039.6L910.3,1039.6z M925.5,1123.1
	c-4.7-2.9-7-6.9-8.1-11.5c2.7,1.2,6.4,0.6,8-2.4c0.8-1.8,1.9-3.5,3.2-5.1c1.5-2,0.6-4.2-1-5.4c4.3-20.5,14.8-39.3,23.6-58.3
	c9.4-20.5,19.3-40.7,29.6-60.7c3.1-6-5.8-11.4-9.2-5.4c-13,23.1-25.5,46.5-37,70.3c-5.3,11.1-13.7,24.8-18.1,38.5
	c-0.2-3.9-0.5-7.9-0.9-11.8c12.2-23.9,23-48.6,34.3-72.9c2.2-4.8-0.8-9.3-4.7-10.8c1-1.1,2.1-2.2,3.2-3.3
	c13-12.7,29.7-21.2,47.4-19.9c-0.6,0.7-1.2,1.5-1.5,2.4c-10.5,26.8-20.9,53.7-31.1,80.6c-4.9,13.1-9.8,26.2-14.8,39.3
	c-2.8,7.5-8.1,16.5-9.6,25.1c0,0,0,0,0,0c-6.1-5-17.8,1.8-12,9.3c1.2,1.6,2.6,3,4,4.3C928.9,1124.9,927.2,1124.1,925.5,1123.1
	L925.5,1123.1z M993.4,1124c0.3-0.9,0.3-1.8,0-2.6c-0.1-0.3-0.2-0.5-0.3-0.7c9.3-19.5,16.2-40.4,24-60.5
	c8.8-22.7,17.9-45.2,25.2-68.4c1.8-5.9-7.3-9.9-10.1-4.2c-10.1,21-18.6,42.5-27.3,64.1c-9,22.4-19.7,44.8-26.6,68
	c-0.3,1-0.3,2.2,0,3.4c-1.8-0.1-3.6-0.3-5.4-0.5c4.1-8.8,7-18.5,10.4-27.5c4.7-12.5,9.5-25.1,14-37.7c9.1-25.2,18.6-50.2,25.8-75.9
	c1.3-4.7-5.9-8-8.1-3.4c-11.1,23.1-20.1,47.1-29.5,70.9c-4.9,12.5-9.7,25-14.4,37.6c-4.2,11-9.6,22.3-12.5,33.9
	c-2.3-0.5-4.5-1.1-6.7-1.8c4.5-6.7,6.3-16,9.1-23.2c5.3-13.8,10.5-27.7,15.8-41.5c10.5-27.7,20.8-55.4,30.9-83.2
	c0.5-1.4,0.5-2.7,0.3-3.8c19.5,6.2,35.4,19,50.5,33.1c-2.2-0.3-4.7,0.7-5.8,3.3c-8.5,21.1-16.7,42.3-24.6,63.7
	c-3.9,10.7-7.8,21.3-11.8,32c-3.1,8.4-7.7,17.2-8.1,26.2c-3.4-0.2-6.8-0.4-10.1-0.7C996.6,1124.2,995,1124.1,993.4,1124L993.4,1124z
	 M1038.6,1126.4c9.2-13.6,12.9-33.2,18.1-48.4c6.8-19.8,13.6-39.3,19.1-59.5c0.2-0.8,0.2-1.6,0-2.3c4.2,3.9,8.3,7.7,12.6,11.3
	c-1.3,0.2-2.5,1.1-3.1,2.8c-5.9,17.8-12.6,35.3-18.8,53c-3.1,8.8-6.3,17.6-9.7,26.3c-2.2,5.6-5,11.1-6.3,16.9
	C1046.5,1126.5,1042.6,1126.5,1038.6,1126.4L1038.6,1126.4z M1105.9,1116.9c-2.2,7.3-8,7.6-13.8,8c1.6-4.5,2.2-9.5,3.6-14
	c2.4-7.5,5.6-15,9-22.1c0.3,4.8,0.5,9.6,0.7,14.3C1105.7,1106.6,1106.9,1113.4,1105.9,1116.9L1105.9,1116.9z M1104.2,1077.9
	c-2.2-1-4.9-0.6-6.8,1.9c-5.6,7.7-10,15.6-13.3,24.6c-2.3,6.2-5.9,14.3-5.2,21.4c-4.2,0.2-8.3,0.4-12.5,0.5
	c5.8-11.6,8.9-26.2,12.5-37.2c6.1-18.5,10.2-37.6,14.1-56.7c0.1-0.4,0.1-0.7,0.1-1c2.6,2.1,5.2,4,7.9,5.9
	c-7.3,3.3-8.9,15.5,0.7,17.1c0.3,0,0.5,0.1,0.8,0.1C1103.1,1062.4,1103.7,1070.2,1104.2,1077.9L1104.2,1077.9z M1631.3,1115.1
	c-111.4-23.8-223.1-46.3-335.1-66.8c-52.4-9.6-105-18.5-157.6-27c39.2-20.7,83.6-30.7,127.5-36.1c53.6-6.6,107.9-5.9,161.7-1.9
	c108.9,8.1,216.3,30,325.1,38.6c57.2,4.5,114.4,5.7,171.4-0.9c5.7,30.3,8.9,61,14.7,91.3c5.3,28.3,12.4,56.1,20.6,83.6
	c-52.9-18.1-108.5-30-162.9-42.4C1741.3,1140.9,1686.6,1126.9,1631.3,1115.1L1631.3,1115.1z"/>
</svg>
