<?xml version="1.0" encoding="UTF-8"?><svg id="Layer_1" xmlns="http://www.w3.org/2000/svg" viewBox="0 0 508.33 370.19"><defs><style>.cls-1{fill:#8f740c;}</style></defs><path class="cls-1" d="m239.25,117.79c-33.69,0-67.42-3.17-100.67-8.57-27.04-3.77-57.66-3.63-80.51-20.13-8.21-6.13-14.18-16.08-10.96-26.49,3.35-11.92,17.79-23.95,29.43-20.6-4.99,3.32-9.4,7.53-13.58,11.71-5.22,4.83-10.13,11.74-7.71,19.12,17.82,29.32,73.32,23.66,103.48,31.04,45.97,5.9,92.44,7.64,138.46,1.38,26.91-2.31,54.85-6.54,78.15-20.72,7.32-4.88,18.7-9.69,19.25-19.53-1.12-8.26-7.22-14.47-14-18.55-6.36-3.69-14.47-4.21-20.81-6.67,8.96-.39,18.52-1.56,26.78,2.75,9.45,4.23,17.22,14.28,16.23,24.96-4.47,18.67-26.96,26.18-42.62,33.61-38,13.87-79.97,14.52-120.07,16.7h-.83Z"/><path class="cls-1" d="m58.17,84.26c-33.56-56.44,321.52-54.26,332.22-15.5,1.56,5.84-3.04,12.73-9.09,12.41,1.66-2.62,3.01-5.43,2.08-8.34-.34-1.92-1.64-3.14-3.22-4.21-14.03-7.17-29.53-9.24-44.8-11.87-52.67-9.25-106.28-8.94-159.42-5.95-34.13,2.08-69.94,3.95-101.63,17.48-5.92,2.99-10.78,8.15-14.62,13.17-.62.86-.81,1.9.13,2.6-.1.21-.54.29-.96.29-.26,0-.52-.03-.68-.08h0Z"/><path class="cls-1" d="m51.95,80.42c-9.5-15.77,17.01-29.12,30.18-28.65-.52.78-2.57,1.2-3.53,1.9-9.4,5.45-18.21,13.58-22.8,23.4-.67,1.25-.7,2.75.05,3.9.52.65.26.88-.28.88-1.04,0-3.19-.83-3.61-1.43h0Z"/><path class="cls-1" d="m339,42.49c.1.02.18.02.29.05-6.94-.93-14.62-2.47-20.65-5.3,8.16-.36,16.86-1.4,24.49,2.16,2.18.96,4.26,2.16,6.08,3.69-.44.03-.88.03-1.35.03-2.78,0-6.03-.36-8.86-.62h0Z"/><path class="cls-1" d="m272.59,30.87c-1.48-.52-3.58-.78-4.6-1.56,6.05-1.97,12.49-.65,18.28,1.4-1.9.86-4.16,1.22-6.47,1.22-2.44,0-4.99-.41-7.22-1.06h0Z"/><path class="cls-1" d="m249.5,304.9c-2.78-.34-6.18-.55-8.52-1.35,21.25-5.01,44-10.34,63.61-19.95,33.82-20.36,63.61-48.36,86.05-80.8,16.13-27.06,28.52-56.62,31.69-88.02.52-4.08,2.78-8.13,2.41-12.15,3.12,4.6,2.11,12.57,3.25,18.42,1.74,19.58-6.42,38.1-14.44,55.4-11.56,28.13-30.13,53.24-52.08,73.92-29.76,26.96-63.63,54.75-105.53,54.75-2.13,0-4.26-.08-6.44-.21h0Z"/><path class="cls-1" d="m222.13,307.06c-50.18-2.83-100.05-23.48-137.63-56.83-30.31-27.92-48.23-66.65-59.53-105.63-2.62-11.69-7.79-22.57-9.56-34.41-.42-13.09-4.52-25.79-4.6-38.8-.08-21.24,18.47-35.01,35.11-44.8,16.75-10.26,36.73-12.44,55.53-16.8,19.51-3.35,40.44-6.75,59.66-1.69-19.56,4.1-38.88,7.04-58.39,9.92-20.65,4.49-43.19,7.69-60.39,20.59-12.54,8.1-24.75,20.05-23.3,36.16,2.75,14.49,3.25,29.69,6.8,43.92,8.55,27.69,16,55.97,30.54,81.16,34.59,68.15,128.23,110.28,202.2,95.29,4.44.11,9.04,1.12,13.01,2.52-14.05,5.84-29.69,9.48-45.14,9.48-1.46,0-2.88-.03-4.34-.08h0Z"/><path class="cls-1" d="m422.1,51.08c-17.53-28.88-79.66-36.39-111.21-38.93-30.21-3.87-60.62-3.64-90.98-3.4-13.87.1-27.74.18-41.56-.08-4.93-.05-9.87.57-14.78,1.22-7.97,1.01-15.92,2.05-23.74.23C143.23-.79,179.75-.11,205.41.57c9.45.26,17.43.49,21.74.18,26.31-1.87,52.78.05,78.98,2.62,38.57,2.7,79.27,8.68,112.25,30.08,15.51,12.31,17.14,32.39,16.1,50.78.52,15.32-2.13,31.84-9.61,44.96-2.96-25.58,7.32-53.66-2.78-78.1h0Z"/><path class="cls-1" d="m405.4,200.13c-2.91-.49-6.7-.81-8.86-2.6,6.54-4.44,14.28-5.95,21.79-7.56,10.05-3.12,18-10.68,24.99-17.79,12.54-12.47,18.18-29.51,17.01-46.91-.62-7.35-2.16-14.88-8.47-19.22-7.61-5.09-18.08-4.78-25.01.86-1.43-2.93,1.4-7.87,4.05-9.95,8.96-6.93,22.67-1.46,29.87,5.74,26,35.97-11.92,97.42-54.46,97.42h-.91Z"/><path class="cls-1" d="m394.82,229.04c3.51.18,6.86.36,9.82.21,10.31.47,21.4-2.15,30.41-6.44,35.66-24.39,73.01-66.36,62.62-112.54-5.56-14.78-18.26-25.95-31.58-33.87-11.76-5.35-24.98-6.75-37.14-10.81-.03.05-.1.08-.16,0-.03-.05-.03-.1,0-.13,25.37-11.25,55.01,7.71,69.4,28.67,24.02,33.4,1.04,80.41-24.52,106.36-18.05,20.08-40.68,39.4-69.48,37.14-12.47-.08-26-1.61-37.63,2.7,3.51-12.54,16.6-11.92,28.26-11.3h0Z"/><path class="cls-1" d="m143.1,140.41c44.91,3.77,89.76,6.44,134.59.08,14.86-1.32,32.91-4.39,46.23-4.34-35.51,15.82-75.37,16.05-113.58,17.12-22.73-.88-47.04-2.65-67.24-12.86h0Z"/><path class="cls-1" d="m234.47,176.6c-10-.88-21.06-1.79-30.18-5.38,17.3-2.49,34.75-2.13,51.82-3.9,12.23-1.56,25.06-3.4,36.98-4.21-15.69,8.75-33.4,13.74-51.35,13.74-2.42,0-4.86-.08-7.27-.26h0Z"/><path class="cls-1" d="m239.2,183.42c5.45-2.75,13.56-3.74,19.38-1.72-3.82,1.82-7.97,2.88-12.16,2.88-2.44,0-4.86-.36-7.22-1.17h0Z"/><path class="cls-1" d="m114.2,357.23c-33.24-5.4-65.84-15.84-94.36-33.71-35.82-29.27-19.32-71.16,19.17-87.84,8.88-4.18,18.31-10.08,28.13-10.83,4.42.57,4,4.47,1.19,6.78-5.22,3.06-11.19,4.28-16.57,6.99-34.39,13.45-62.13,45.89-28.26,77.21,29.45,19.43,64.08,28.54,98.23,34.49,31.56,7.79,64.28,13.77,96.83,11.12,26.81-2.52,53.92-1.87,80.65-4.49,27.92-3.53,56.31-9.84,82.98-18.29,25.27-10.88,59.58-24.65,58.47-56.98-.96-14.96-12.75-24.1-20.96-35.04-3.12-5.17-7.84-9.35-12.15-12.96,11.19,1.04,19.32,9.71,26.49,17.38,11.09,10.57,18.05,27.19,13.43,42.41-5.61,38.36-69.01,56.65-101.63,63.48-49.43,12.23-100.98,11.3-151.53,13.25-27.17-.47-53.71-7.09-80.1-12.96h0Z"/><path class="cls-1" d="m399.76,232.75h-.13c7.95-4.42,22.31,5.71,26.57,13.2-8.96-4-17.71-8.99-26.44-13.2h0Z"/><path class="cls-1" d="m396.39,236.08c-.39-.26-2.08-1.25-1.12-1.61,11.43-.78,21.84,5.87,29.01,13.87-9.76-2.88-18.93-7.48-27.89-12.26h0Z"/><path class="cls-1" d="m246.96,348.22c-33.58-2-67.06-4.91-100.62-7.27-25.63-5.01-52.72-11.74-74.83-25.66-15.87-10.83-26.49-34.21-12.26-50.54,9.38-10.75,26.57-16.8,39.27-9.04-46.23,6.52-50.65,40.65-9.19,60.31,29.45,11.35,59.79,19.19,91.53,18.8,32.23,2.62,64.75,6.7,97.14,5.48,25.63-3.66,51.17-10.15,72.26-25.37,9.77-6.73,20.39-12.54,24.75-23.89,4.1-15.3-9.76-25.06-19.87-33.69-2.26-1.9-4.36-3.17-6.93-2.93,2.96-2.6,7.37-1.12,10.67,0,14.93,4.52,26.41,17.95,25.09,34.02-1.82,16.08-17.12,25.48-29.48,33.66-26.39,17.95-58.8,26.96-90.78,26.96-5.61,0-11.19-.28-16.75-.83h0Z"/><path class="cls-1" d="m229.92,320.74c-13.5-2-28.57-2.08-41.06-6.75,32.52-.26,65.4-.26,97.66-3.38.02-.03.05-.03.08-.03-12.34,7.53-27.19,11.45-42.05,11.45-4.91,0-9.82-.44-14.62-1.3h0Z"/><path class="cls-1" d="m219.98,326.67c-2.05-.29-5.01-.39-6.55-1.32,2.44-.36,4.96-.73,7.43-.54,2.62.21,11.43,1.58,4.08,1.82,0,0,.03,0,.03-.02-1.06.08-2.13.13-3.19.13-.6,0-1.19-.02-1.79-.05h0Z"/><path class="cls-1" d="m420.45,281.72c2.83,8.13-2.78,19.82-11.89,20.54,6.18-5.22,9.58-12.91,11.89-20.54h0Z"/><path class="cls-1" d="m44.5,258.9c-7.84,8.75-15.17,20.88-10.7,32.54-12.05-10.88-3.9-30.36,10.7-32.54h0Z"/><path class="cls-1" d="m42.35,294.1c-.44-.6-.73-1.61-.41-2.31,1.32-.65,2.23.44,2.52,1.51.21.83.05,1.69-.6,1.69-.36,0-.86-.26-1.51-.88h0Z"/><path class="cls-1" d="m250.27,274.72c2.28-1.98,8.1-2.73,10.21-.6-1.64,1.17-3.58,1.79-5.58,1.79-1.58,0-3.2-.39-4.62-1.19h0Z"/><path class="cls-1" d="m486.86,138.76c3.22,13.69-9.58,32.15-22.42,38.88,7.43-12.94,14.13-26.6,22.42-38.88h0Z"/><path class="cls-1" d="m454.87,188.65c.05-1.64,1.51-3.51,3.19-3.35.42,1.64-1.17,3.4-2.7,3.4-.16,0-.34-.02-.49-.05h0Z"/><path class="cls-1" d="m441.83,66.96c-2.26-1.12-15.89-1.72-11.32-5.9-2.47-1.66-7.56-12.41-2.86-13.17,1.14.05,1.53,1.22,1.84,2.16.16-.52-.18-1.58.21-1.77,1.95,2.47,2.23,5.95,3.74,8.52,1.4,2.18,4,3.79,6.39,4.41,3.51.65,7.01.86,10.6,1.3,1.38.11,3.56.52,3.22,2.36-.03,0-.03.03-.03.03-1.06,1.95-3.58,1.53-6.02,1.12-1.48-.26-2.94-.52-4.05-.23-.23.7-.91,1.19-1.58,1.19-.05,0-.1,0-.13-.03h0Z"/><path class="cls-1" d="m458.24,71.03c-3.61,1.14-7.58.54-11.51-.05-2.54-.39-5.06-.78-7.45-.67-4.49.73-3.92,7.58-6.18,10.23-4.75-18.62,14.52-14.08,25.14-9.51h0Z"/><path class="cls-1" d="m431.38,72.47s-.02-.03-.02-.03c0,0-.03,0-.03-.03-.03.03-.05.05-.08.08-.05.05-.18-.03-.11-.1-4.26-2.13,4.05-6.52,5.3-8.81,1.66-1.43,3.17,1.06,1.66,2.36,2.81.6-.36,2.96-1.4,3.9-1.45,1.01-2.75,3.27-4.65,3.04-.34.49-.57,2-1.01,2.05.08-.8.18-1.64.34-2.47h0Z"/><path class="cls-1" d="m444.19,96.79c-9.76-.18-16.18-7.51-11.53-16.88.05-.1.02-.28.18-.21.7,1.58.93,3.4,1.32,5.14.44,3.01.99,6.13,4.1,7.14,2.18,1.25,4.88.96,6.6,2.96.44.6,1.53,1.06,1.64,1.69-.57.1-1.17.18-1.77.18-.18,0-.36,0-.55-.03h0Z"/><path class="cls-1" d="m434.37,98.93c0-.16.02-.29.02-.44s.03-.29.03-.44c-2.6.52-3.64-3.35-2.08-4.99,1.4-1.61,4.26-.86,4.44,1.32,3.48,1.14,7.53,2.68,10.52,4.16-3.71.65-8.05.03-11.76-1.01-.49.36-.65,1.09-1.09,1.45-.05,0-.08-.02-.08-.05h0Z"/><path class="cls-1" d="m449.16,101.87c1.79.21-2.21,1.06-2.78.99-3.35.6-6.93-.05-10.1,1.19-3.95,2.16-4.94,6.96-6.91,10.16-2.26-12.88,9.69-17.09,19.79-12.34h0Z"/><path class="cls-1" d="m427.55,118.21c.26-6.86,2.57-13.3,4.36-19.77.18-.18.39.08.47.34.08.21.05.44-.11.41-.39,13.82-1.51,29.89-8.98,41.5,1.19-7.79,2.18-15.01,4.26-22.49h0Z"/><path class="cls-1" d="m424.72,191.63l-.02-.03c-.08-.05-.13-.08-.26-.1-1.12-.13.57-.6.88-.16.26.26.05.65-.08.91-2.93,3.53-7.71,4.81-11.95,6.21-2.86,1.27-6.13,1.87-8.96,2.39-4.52,1.84-8.21,6.29-12,8.67,4.21-14.49,19.9-12.6,32.39-17.89h0Z"/><path class="cls-1" d="m410.57,193.42l.21.08c-8.26-2.78-3.27-14.34,1.35-17.95.34,4.78-4.13,9.74-1.64,14.18,3.01,1.4,6.7,1.25,10,1.97-1.71,1.4-4.28,2.13-6.78,2.13-1.09,0-2.16-.13-3.14-.41h0Z"/><path class="cls-1" d="m402.01,198.41c.49-.75,1.04-1.43,1.61-2.1v-.03c-.18-.26-.23-.57-.21-.86-3.04-1.77,1.12-6.52,3.74-6.05,2.49.57,4.26,3.09,6.65,3.9,2.65.86,5.32.18,7.82-.57-2.75,3.64-9.01,4.39-12.93,1.43-1.12,1.12-2.44,2.75-4.08,2.83-.75.31-2.13,1.51-2.49,1.51-.05,0-.08-.03-.1-.05h0Z"/><path class="cls-1" d="m379.06,235.5c17.53-2.44,36.36,3.77,48.88,16.08.99.86,1.74,2,2.39,3.17.03.29-.31-.08-.44-.1-8.23-3.84-15.61-10.16-24.49-13.01-12.88-4.52-30.75-6.42-40.13,5.4-2.26,2.36-2.96,5.06-2.52,8.05.47,2.8,2.91,5.06,3.66,7.38-16.7-8.36.05-25.97,12.65-26.96h0Z"/><path class="cls-1" d="m358.19,257.63c-2.57-.24-2.16-4.86-.52-5.92.47-.91.36-2.08,1.06-2.93.6-.81,1.77-.18,1.84.7,1.74,1.35.86,4.26.26,6.03.23.91-.39,2.34-1.45,1.79-.29.21-.65.34-1.01.34h-.18Z"/><path class="cls-1" d="m360.89,258.2c-1.25-1.33-2.54-2.7-2.78-4.6-.44-2.78.62-5.53,2.49-7.56.08-.26.47-.18.44.1-.96,3.74-.29,7.48,2.44,10.21,1.45,3.74,4.83,7.11,6.44,10.31-3.45-2.28-6.96-4.91-9.04-8.47h0Z"/><path class="cls-1" d="m363.15,264.32c-9.27-6.91-18.21-.21-26,5.38-.65.34-1.25,1.45-1.43,1.09.36-.6.52-.91,1.04-1.48,7.27-8.73,17.77-15.71,28.34-7.69,3.3,2.18,10.47,8.05,7.66,11.87.23-4.26-6.44-6.91-9.61-9.17h0Z"/><path class="cls-1" d="m342.79,262.84c1.33-2.65,5.27-3.98,7.61-5.97,1.87-.93,5.58-3.51,6.8-.6,2.44-.34,9.32,1.95,6.96,5.2-1.04.91-2.08.02-2.88-.49-4.78-2.96-9.12,1.43-13.79,1.51-5.45,3.12-11.32,7.4-16.49,10.08,3.77-3.43,7.87-6.47,11.79-9.71h0Z"/><path class="cls-1" d="m108.08,263.64s.02.03.05.03c-4.91.88-12.83-3.22-18.65-3.35-7.22-.44-14.54,1.9-20.49,4.75,10.36-11.32,27.43-9.38,39.09-1.43h0Z"/><path class="cls-1" d="m99.83,260.07c-4.42-.6-8.75-.41-13.12-.26-2.39.1-4.75.21-7.11.18-2.29-1.04-.21-3.14,1.53-3.14-.65-.13-1.3-.26-1.95-.39-.1-.02-.08-.18.03-.18,6.96.44,13.97.29,20.88,1.48.57.05,1.01.55,1.04,1.12,0,.65-.57,1.19-1.19,1.19h-.1Z"/><path class="cls-1" d="m67.26,261.37c4.34-3.66,15.84-7.27,14.44-14-3.92-6.08-10.78-11.84-18.1-12.28-3.92.39-7.92.52-11.87.6,3.09-1.66,8-2.7,11.79-3.66,7.69-.55,13.97,5.53,19.04,10.57,8.8,9.82-6.05,18.13-14.93,18.78l.03-.03c-.1,0-.23.13-.31.13-.05,0-.08-.03-.08-.1h0Z"/><path class="cls-1" d="m61.55,262.51c6.6-3.69,14.73-5.79,19.51-11.95.31-.67.65-1.48.47-2.11-5.56-8.52-15.17-16.96-25.97-14.05-3.17-.21-2.05-3.66.86-3.69,13.17-3.32,23.25,8.78,31.17,17.48,3.27,1.19-1.22,9.82-4.37,8.73-1.04.86-2.47,2.41-3.71,1.04-3.17,1.38-6.52,2.21-9.71,3.43-.29-.13.29-.36.41-.49-2.6.62-5.92,1.61-8.36,1.61h-.28Z"/><path class="cls-1" d="m59.57,222.42c-.23-3.43-3.14-5.64-4.39-8.8-.31-.96-.52-2.16-.39-3.22.18-.6.86-.34.93.21,1.97,4.21,7.74,6.75,7.14,12.26-1.32,12.18-15.89,12.8-24.98,13.01,7.22-4.05,20.26-3.12,21.69-13.45h0Z"/><path class="cls-1" d="m56.24,229.63c3.95-6.62.29-13.92-.23-20.93-.1-.42-.31-2.18.29-.75,6.49,10.49,9.09,24.39-6.18,26.52,1.72-2.05,4.6-2.7,6.13-4.83h0Z"/><path class="cls-1" d="m214.89,70.29c-12.03.83-24,1.64-35.69,1.22,30.62-8.78,67.14-15.01,96.15.67-19.69-4.65-40.18-3.27-60.46-1.9h0Z"/><path class="cls-1" d="m282.23,91.12c4.21-2.31,10.23-2.91,15.19-4.08-.05.02-.08.02-.13.05,1.98-.39,4.44-1.74,6.08-1.87-4.49,4.86-10.99,6.03-17.35,6.03-1.27,0-2.55-.05-3.79-.13h0Z"/><path class="cls-1" d="m204.26,102c-23.97-2.47-49.61-7.35-69.97-20.13,35.97,8.05,72.59,12.18,109.32,14.1-10.13,4.26-22.05,6.18-33.53,6.18-1.95,0-3.9-.05-5.82-.16h0Z"/><path class="cls-1" d="m253.59,89.66c3.04-1.66,7.77-1.64,11.4-1.66-2,1.4-4.93,1.95-7.79,1.95-1.27,0-2.49-.1-3.61-.28h0Z"/></svg>