<?xml version="1.0" encoding="utf-8"?>
<!-- Generator: Adobe Illustrator 27.1.0, SVG Export Plug-In . SVG Version: 6.00 Build 0)  -->
<svg version="1.1" id="Layer_1" xmlns="http://www.w3.org/2000/svg" xmlns:xlink="http://www.w3.org/1999/xlink" x="0px" y="0px"
	 viewBox="0 0 508.3 370.2" style="enable-background:new 0 0 508.3 370.2;" xml:space="preserve">
<style type="text/css">
	.st0{fill:#DBA845;}
</style>
<path class="st0" d="M239.2,117.8c-33.7,0-67.4-3.2-100.7-8.6c-27-3.8-57.7-3.6-80.5-20.1C49.9,83,43.9,73,47.1,62.6
	c3.3-11.9,17.8-24,29.4-20.6c-5,3.3-9.4,7.5-13.6,11.7c-5.2,4.8-10.1,11.7-7.7,19.1c17.8,29.3,73.3,23.7,103.5,31
	c46,5.9,92.4,7.6,138.5,1.4c26.9-2.3,54.9-6.5,78.1-20.7c7.3-4.9,18.7-9.7,19.2-19.5c-1.1-8.3-7.2-14.5-14-18.5
	c-6.4-3.7-14.5-4.2-20.8-6.7c9-0.4,18.5-1.6,26.8,2.8c9.5,4.2,17.2,14.3,16.2,25c-4.5,18.7-27,26.2-42.6,33.6
	c-38,13.9-80,14.5-120.1,16.7L239.2,117.8L239.2,117.8z"/>
<path class="st0" d="M58.2,84.3C24.6,27.8,379.7,30,390.4,68.8c1.6,5.8-3,12.7-9.1,12.4c1.7-2.6,3-5.4,2.1-8.3
	c-0.3-1.9-1.6-3.1-3.2-4.2c-14-7.2-29.5-9.2-44.8-11.9c-52.7-9.2-106.3-8.9-159.4-6c-34.1,2.1-69.9,4-101.6,17.5
	c-5.9,3-10.8,8.2-14.6,13.2c-0.6,0.9-0.8,1.9,0.1,2.6c-0.1,0.2-0.5,0.3-1,0.3C58.6,84.3,58.3,84.3,58.2,84.3L58.2,84.3L58.2,84.3z"
	/>
<path class="st0" d="M52,80.4c-9.5-15.8,17-29.1,30.2-28.7c-0.5,0.8-2.6,1.2-3.5,1.9c-9.4,5.5-18.2,13.6-22.8,23.4
	c-0.7,1.2-0.7,2.8,0,3.9c0.5,0.7,0.3,0.9-0.3,0.9C54.5,81.8,52.4,81,52,80.4L52,80.4L52,80.4z"/>
<path class="st0" d="M339,42.5c0.1,0,0.2,0,0.3,0c-6.9-0.9-14.6-2.5-20.6-5.3c8.2-0.4,16.9-1.4,24.5,2.2c2.2,1,4.3,2.2,6.1,3.7
	c-0.4,0-0.9,0-1.4,0C345.1,43.1,341.8,42.8,339,42.5L339,42.5L339,42.5z"/>
<path class="st0" d="M272.6,30.9c-1.5-0.5-3.6-0.8-4.6-1.6c6-2,12.5-0.6,18.3,1.4c-1.9,0.9-4.2,1.2-6.5,1.2
	C277.4,31.9,274.8,31.5,272.6,30.9L272.6,30.9L272.6,30.9z"/>
<path class="st0" d="M249.5,304.9c-2.8-0.3-6.2-0.5-8.5-1.4c21.2-5,44-10.3,63.6-20c33.8-20.4,63.6-48.4,86.1-80.8
	c16.1-27.1,28.5-56.6,31.7-88c0.5-4.1,2.8-8.1,2.4-12.2c3.1,4.6,2.1,12.6,3.2,18.4c1.7,19.6-6.4,38.1-14.4,55.4
	c-11.6,28.1-30.1,53.2-52.1,73.9c-29.8,27-63.6,54.8-105.5,54.8C253.8,305.1,251.7,305,249.5,304.9L249.5,304.9L249.5,304.9z"/>
<path class="st0" d="M222.1,307.1c-50.2-2.8-100.1-23.5-137.6-56.8C54.2,222.3,36.3,183.6,25,144.6c-2.6-11.7-7.8-22.6-9.6-34.4
	c-0.4-13.1-4.5-25.8-4.6-38.8c-0.1-21.2,18.5-35,35.1-44.8c16.8-10.3,36.7-12.4,55.5-16.8C121,6.4,141.9,3,161.1,8.1
	c-19.6,4.1-38.9,7-58.4,9.9c-20.7,4.5-43.2,7.7-60.4,20.6c-12.5,8.1-24.8,20-23.3,36.2c2.8,14.5,3.2,29.7,6.8,43.9
	c8.5,27.7,16,56,30.5,81.2C91,268,184.6,310.1,258.6,295.1c4.4,0.1,9,1.1,13,2.5c-14,5.8-29.7,9.5-45.1,9.5
	C225,307.1,223.6,307.1,222.1,307.1L222.1,307.1L222.1,307.1z"/>
<path class="st0" d="M422.1,51.1c-17.5-28.9-79.7-36.4-111.2-38.9c-30.2-3.9-60.6-3.6-91-3.4c-13.9,0.1-27.7,0.2-41.6-0.1
	c-4.9-0.1-9.9,0.6-14.8,1.2c-8,1-15.9,2.1-23.7,0.2c3.4-10.9,39.9-10.2,65.6-9.6c9.4,0.3,17.4,0.5,21.7,0.2
	c26.3-1.9,52.8,0.1,79,2.6c38.6,2.7,79.3,8.7,112.2,30.1c15.5,12.3,17.1,32.4,16.1,50.8c0.5,15.3-2.1,31.8-9.6,45
	C421.9,103.6,432.2,75.5,422.1,51.1L422.1,51.1L422.1,51.1z"/>
<path class="st0" d="M405.4,200.1c-2.9-0.5-6.7-0.8-8.9-2.6c6.5-4.4,14.3-5.9,21.8-7.6c10-3.1,18-10.7,25-17.8
	c12.5-12.5,18.2-29.5,17-46.9c-0.6-7.3-2.2-14.9-8.5-19.2c-7.6-5.1-18.1-4.8-25,0.9c-1.4-2.9,1.4-7.9,4-9.9c9-6.9,22.7-1.5,29.9,5.7
	c26,36-11.9,97.4-54.5,97.4L405.4,200.1L405.4,200.1z"/>
<path class="st0" d="M394.8,229c3.5,0.2,6.9,0.4,9.8,0.2c10.3,0.5,21.4-2.1,30.4-6.4c35.7-24.4,73-66.4,62.6-112.5
	c-5.6-14.8-18.3-26-31.6-33.9c-11.8-5.3-25-6.8-37.1-10.8c0,0.1-0.1,0.1-0.2,0c0-0.1,0-0.1,0-0.1c25.4-11.2,55,7.7,69.4,28.7
	c24,33.4,1,80.4-24.5,106.4c-18,20.1-40.7,39.4-69.5,37.1c-12.5-0.1-26-1.6-37.6,2.7C370.1,227.8,383.2,228.4,394.8,229L394.8,229
	L394.8,229z"/>
<path class="st0" d="M143.1,140.4c44.9,3.8,89.8,6.4,134.6,0.1c14.9-1.3,32.9-4.4,46.2-4.3c-35.5,15.8-75.4,16.1-113.6,17.1
	C187.6,152.4,163.3,150.6,143.1,140.4L143.1,140.4z"/>
<path class="st0" d="M234.5,176.6c-10-0.9-21.1-1.8-30.2-5.4c17.3-2.5,34.8-2.1,51.8-3.9c12.2-1.6,25.1-3.4,37-4.2
	c-15.7,8.8-33.4,13.7-51.4,13.7C239.3,176.9,236.9,176.8,234.5,176.6L234.5,176.6L234.5,176.6z"/>
<path class="st0" d="M239.2,183.4c5.4-2.8,13.6-3.7,19.4-1.7c-3.8,1.8-8,2.9-12.2,2.9C244,184.6,241.6,184.2,239.2,183.4
	L239.2,183.4L239.2,183.4z"/>
<path class="st0" d="M114.2,357.2c-33.2-5.4-65.8-15.8-94.4-33.7C-16,294.3,0.5,252.4,39,235.7c8.9-4.2,18.3-10.1,28.1-10.8
	c4.4,0.6,4,4.5,1.2,6.8c-5.2,3.1-11.2,4.3-16.6,7c-34.4,13.4-62.1,45.9-28.3,77.2c29.5,19.4,64.1,28.5,98.2,34.5
	c31.6,7.8,64.3,13.8,96.8,11.1c26.8-2.5,53.9-1.9,80.6-4.5c27.9-3.5,56.3-9.8,83-18.3c25.3-10.9,59.6-24.6,58.5-57
	c-1-15-12.8-24.1-21-35c-3.1-5.2-7.8-9.4-12.1-13c11.2,1,19.3,9.7,26.5,17.4c11.1,10.6,18,27.2,13.4,42.4
	c-5.6,38.4-69,56.6-101.6,63.5c-49.4,12.2-101,11.3-151.5,13.2C167.1,369.7,140.6,363.1,114.2,357.2L114.2,357.2L114.2,357.2z"/>
<path class="st0" d="M399.8,232.8h-0.1c8-4.4,22.3,5.7,26.6,13.2C417.2,241.9,408.5,237,399.8,232.8L399.8,232.8z"/>
<path class="st0" d="M396.4,236.1c-0.4-0.3-2.1-1.2-1.1-1.6c11.4-0.8,21.8,5.9,29,13.9C414.5,245.5,405.4,240.9,396.4,236.1
	L396.4,236.1z"/>
<path class="st0" d="M247,348.2c-33.6-2-67.1-4.9-100.6-7.3c-25.6-5-52.7-11.7-74.8-25.7c-15.9-10.8-26.5-34.2-12.3-50.5
	c9.4-10.8,26.6-16.8,39.3-9c-46.2,6.5-50.7,40.7-9.2,60.3c29.4,11.4,59.8,19.2,91.5,18.8c32.2,2.6,64.8,6.7,97.1,5.5
	c25.6-3.7,51.2-10.1,72.3-25.4c9.8-6.7,20.4-12.5,24.8-23.9c4.1-15.3-9.8-25.1-19.9-33.7c-2.3-1.9-4.4-3.2-6.9-2.9
	c3-2.6,7.4-1.1,10.7,0c14.9,4.5,26.4,18,25.1,34c-1.8,16.1-17.1,25.5-29.5,33.7c-26.4,18-58.8,27-90.8,27
	C258.1,349.1,252.5,348.8,247,348.2L247,348.2L247,348.2z"/>
<path class="st0" d="M229.9,320.7c-13.5-2-28.6-2.1-41.1-6.8c32.5-0.3,65.4-0.3,97.7-3.4c0,0,0,0,0.1,0
	c-12.3,7.5-27.2,11.5-42.1,11.5C239.6,322,234.7,321.6,229.9,320.7L229.9,320.7L229.9,320.7z"/>
<path class="st0" d="M220,326.7c-2.1-0.3-5-0.4-6.6-1.3c2.4-0.4,5-0.7,7.4-0.5c2.6,0.2,11.4,1.6,4.1,1.8c0,0,0,0,0,0
	c-1.1,0.1-2.1,0.1-3.2,0.1C221.2,326.7,220.6,326.7,220,326.7L220,326.7L220,326.7z"/>
<path class="st0" d="M420.5,281.7c2.8,8.1-2.8,19.8-11.9,20.5C414.7,297,418.1,289.4,420.5,281.7L420.5,281.7z"/>
<path class="st0" d="M44.5,258.9c-7.8,8.8-15.2,20.9-10.7,32.5C21.8,280.6,29.9,261.1,44.5,258.9L44.5,258.9z"/>
<path class="st0" d="M42.3,294.1c-0.4-0.6-0.7-1.6-0.4-2.3c1.3-0.6,2.2,0.4,2.5,1.5c0.2,0.8,0,1.7-0.6,1.7
	C43.5,295,43,294.7,42.3,294.1L42.3,294.1L42.3,294.1z"/>
<path class="st0" d="M250.3,274.7c2.3-2,8.1-2.7,10.2-0.6c-1.6,1.2-3.6,1.8-5.6,1.8C253.3,275.9,251.7,275.5,250.3,274.7
	L250.3,274.7L250.3,274.7z"/>
<path class="st0" d="M486.9,138.8c3.2,13.7-9.6,32.2-22.4,38.9C471.9,164.7,478.6,151,486.9,138.8L486.9,138.8z"/>
<path class="st0" d="M454.9,188.6c0-1.6,1.5-3.5,3.2-3.4c0.4,1.6-1.2,3.4-2.7,3.4C455.2,188.7,455,188.7,454.9,188.6L454.9,188.6
	L454.9,188.6z"/>
<path class="st0" d="M441.8,67c-2.3-1.1-15.9-1.7-11.3-5.9c-2.5-1.7-7.6-12.4-2.9-13.2c1.1,0,1.5,1.2,1.8,2.2
	c0.2-0.5-0.2-1.6,0.2-1.8c2,2.5,2.2,6,3.7,8.5c1.4,2.2,4,3.8,6.4,4.4c3.5,0.7,7,0.9,10.6,1.3c1.4,0.1,3.6,0.5,3.2,2.4c0,0,0,0,0,0
	c-1.1,1.9-3.6,1.5-6,1.1c-1.5-0.3-2.9-0.5-4-0.2c-0.2,0.7-0.9,1.2-1.6,1.2C441.9,67,441.9,67,441.8,67L441.8,67L441.8,67z"/>
<path class="st0" d="M458.2,71c-3.6,1.1-7.6,0.5-11.5-0.1c-2.5-0.4-5.1-0.8-7.5-0.7c-4.5,0.7-3.9,7.6-6.2,10.2
	C428.3,61.9,447.6,66.5,458.2,71C458.2,71,458.2,71,458.2,71z"/>
<path class="st0" d="M431.4,72.5L431.4,72.5C431.4,72.4,431.3,72.4,431.4,72.5c-0.1,0-0.1,0-0.1,0c0,0.1-0.2,0-0.1-0.1
	c-4.3-2.1,4-6.5,5.3-8.8c1.7-1.4,3.2,1.1,1.7,2.4c2.8,0.6-0.4,3-1.4,3.9c-1.5,1-2.8,3.3-4.6,3c-0.3,0.5-0.6,2-1,2.1
	C431.1,74.1,431.2,73.3,431.4,72.5L431.4,72.5L431.4,72.5z"/>
<path class="st0" d="M444.2,96.8c-9.8-0.2-16.2-7.5-11.5-16.9c0-0.1,0-0.3,0.2-0.2c0.7,1.6,0.9,3.4,1.3,5.1c0.4,3,1,6.1,4.1,7.1
	c2.2,1.2,4.9,1,6.6,3c0.4,0.6,1.5,1.1,1.6,1.7c-0.6,0.1-1.2,0.2-1.8,0.2C444.6,96.8,444.4,96.8,444.2,96.8L444.2,96.8L444.2,96.8z"
	/>
<path class="st0" d="M434.4,98.9c0-0.2,0-0.3,0-0.4s0-0.3,0-0.4c-2.6,0.5-3.6-3.3-2.1-5c1.4-1.6,4.3-0.9,4.4,1.3
	c3.5,1.1,7.5,2.7,10.5,4.2c-3.7,0.7-8,0-11.8-1C435,97.9,434.9,98.6,434.4,98.9C434.4,99,434.4,99,434.4,98.9L434.4,98.9L434.4,98.9
	z"/>
<path class="st0" d="M449.2,101.9c1.8,0.2-2.2,1.1-2.8,1c-3.4,0.6-6.9-0.1-10.1,1.2c-4,2.2-4.9,7-6.9,10.2
	C427.1,101.3,439.1,97.1,449.2,101.9C449.2,101.9,449.2,101.9,449.2,101.9z"/>
<path class="st0" d="M427.5,118.2c0.3-6.9,2.6-13.3,4.4-19.8c0.2-0.2,0.4,0.1,0.5,0.3c0.1,0.2,0,0.4-0.1,0.4
	c-0.4,13.8-1.5,29.9-9,41.5C424.5,132.9,425.5,125.7,427.5,118.2L427.5,118.2L427.5,118.2z"/>
<path class="st0" d="M424.7,191.6L424.7,191.6c-0.1-0.1-0.1-0.1-0.3-0.1c-1.1-0.1,0.6-0.6,0.9-0.2c0.3,0.3,0,0.6-0.1,0.9
	c-2.9,3.5-7.7,4.8-12,6.2c-2.9,1.3-6.1,1.9-9,2.4c-4.5,1.8-8.2,6.3-12,8.7C396.5,195,412.2,196.9,424.7,191.6L424.7,191.6
	L424.7,191.6z"/>
<path class="st0" d="M410.6,193.4l0.2,0.1c-8.3-2.8-3.3-14.3,1.4-17.9c0.3,4.8-4.1,9.7-1.6,14.2c3,1.4,6.7,1.2,10,2
	c-1.7,1.4-4.3,2.1-6.8,2.1C412.6,193.8,411.5,193.7,410.6,193.4L410.6,193.4L410.6,193.4z"/>
<path class="st0" d="M402,198.4c0.5-0.8,1-1.4,1.6-2.1v0c-0.2-0.3-0.2-0.6-0.2-0.9c-3-1.8,1.1-6.5,3.7-6.1c2.5,0.6,4.3,3.1,6.6,3.9
	c2.6,0.9,5.3,0.2,7.8-0.6c-2.8,3.6-9,4.4-12.9,1.4c-1.1,1.1-2.4,2.8-4.1,2.8c-0.8,0.3-2.1,1.5-2.5,1.5
	C402.1,198.5,402,198.4,402,198.4L402,198.4L402,198.4z"/>
<path class="st0" d="M379.1,235.5c17.5-2.4,36.4,3.8,48.9,16.1c1,0.9,1.7,2,2.4,3.2c0,0.3-0.3-0.1-0.4-0.1
	c-8.2-3.8-15.6-10.2-24.5-13c-12.9-4.5-30.8-6.4-40.1,5.4c-2.3,2.4-3,5.1-2.5,8.1c0.5,2.8,2.9,5.1,3.7,7.4
	C349.7,254.1,366.5,236.5,379.1,235.5L379.1,235.5L379.1,235.5z"/>
<path class="st0" d="M358.2,257.6c-2.6-0.2-2.2-4.9-0.5-5.9c0.5-0.9,0.4-2.1,1.1-2.9c0.6-0.8,1.8-0.2,1.8,0.7c1.7,1.4,0.9,4.3,0.3,6
	c0.2,0.9-0.4,2.3-1.5,1.8c-0.3,0.2-0.6,0.3-1,0.3L358.2,257.6L358.2,257.6z"/>
<path class="st0" d="M360.9,258.2c-1.2-1.3-2.5-2.7-2.8-4.6c-0.4-2.8,0.6-5.5,2.5-7.6c0.1-0.3,0.5-0.2,0.4,0.1
	c-1,3.7-0.3,7.5,2.4,10.2c1.5,3.7,4.8,7.1,6.4,10.3C366.5,264.4,363,261.8,360.9,258.2L360.9,258.2L360.9,258.2z"/>
<path class="st0" d="M363.1,264.3c-9.3-6.9-18.2-0.2-26,5.4c-0.6,0.3-1.2,1.5-1.4,1.1c0.4-0.6,0.5-0.9,1-1.5
	c7.3-8.7,17.8-15.7,28.3-7.7c3.3,2.2,10.5,8,7.7,11.9C373,269.2,366.3,266.6,363.1,264.3L363.1,264.3L363.1,264.3z"/>
<path class="st0" d="M342.8,262.8c1.3-2.6,5.3-4,7.6-6c1.9-0.9,5.6-3.5,6.8-0.6c2.4-0.3,9.3,2,7,5.2c-1,0.9-2.1,0-2.9-0.5
	c-4.8-3-9.1,1.4-13.8,1.5c-5.5,3.1-11.3,7.4-16.5,10.1C334.8,269.1,338.9,266.1,342.8,262.8L342.8,262.8L342.8,262.8z"/>
<path class="st0" d="M108.1,263.6C108.1,263.6,108.1,263.7,108.1,263.6c-4.9,0.9-12.8-3.2-18.6-3.3c-7.2-0.4-14.5,1.9-20.5,4.8
	C79.4,253.8,96.4,255.7,108.1,263.6L108.1,263.6z"/>
<path class="st0" d="M99.8,260.1c-4.4-0.6-8.8-0.4-13.1-0.3c-2.4,0.1-4.8,0.2-7.1,0.2c-2.3-1-0.2-3.1,1.5-3.1
	c-0.7-0.1-1.3-0.3-1.9-0.4c-0.1,0-0.1-0.2,0-0.2c7,0.4,14,0.3,20.9,1.5c0.6,0,1,0.5,1,1.1c0,0.6-0.6,1.2-1.2,1.2L99.8,260.1
	L99.8,260.1z"/>
<path class="st0" d="M67.3,261.4c4.3-3.7,15.8-7.3,14.4-14c-3.9-6.1-10.8-11.8-18.1-12.3c-3.9,0.4-7.9,0.5-11.9,0.6
	c3.1-1.7,8-2.7,11.8-3.7c7.7-0.6,14,5.5,19,10.6c8.8,9.8-6.1,18.1-14.9,18.8l0,0c-0.1,0-0.2,0.1-0.3,0.1
	C67.3,261.5,67.3,261.5,67.3,261.4L67.3,261.4L67.3,261.4z"/>
<path class="st0" d="M61.5,262.5c6.6-3.7,14.7-5.8,19.5-11.9c0.3-0.7,0.7-1.5,0.5-2.1c-5.6-8.5-15.2-17-26-14.1
	c-3.2-0.2-2-3.7,0.9-3.7c13.2-3.3,23.2,8.8,31.2,17.5c3.3,1.2-1.2,9.8-4.4,8.7c-1,0.9-2.5,2.4-3.7,1c-3.2,1.4-6.5,2.2-9.7,3.4
	c-0.3-0.1,0.3-0.4,0.4-0.5c-2.6,0.6-5.9,1.6-8.4,1.6H61.5L61.5,262.5z"/>
<path class="st0" d="M59.6,222.4c-0.2-3.4-3.1-5.6-4.4-8.8c-0.3-1-0.5-2.2-0.4-3.2c0.2-0.6,0.9-0.3,0.9,0.2c2,4.2,7.7,6.8,7.1,12.3
	c-1.3,12.2-15.9,12.8-25,13C45.1,231.8,58.1,232.8,59.6,222.4L59.6,222.4L59.6,222.4z"/>
<path class="st0" d="M56.2,229.6c4-6.6,0.3-13.9-0.2-20.9c-0.1-0.4-0.3-2.2,0.3-0.8c6.5,10.5,9.1,24.4-6.2,26.5
	C51.8,232.4,54.7,231.8,56.2,229.6L56.2,229.6L56.2,229.6z"/>
<path class="st0" d="M214.9,70.3c-12,0.8-24,1.6-35.7,1.2c30.6-8.8,67.1-15,96.2,0.7C255.7,67.5,235.2,68.9,214.9,70.3L214.9,70.3
	L214.9,70.3z"/>
<path class="st0" d="M282.2,91.1c4.2-2.3,10.2-2.9,15.2-4.1c0,0-0.1,0-0.1,0.1c2-0.4,4.4-1.7,6.1-1.9c-4.5,4.9-11,6-17.4,6
	C284.8,91.2,283.5,91.2,282.2,91.1L282.2,91.1L282.2,91.1z"/>
<path class="st0" d="M204.3,102c-24-2.5-49.6-7.3-70-20.1c36,8.1,72.6,12.2,109.3,14.1c-10.1,4.3-22.1,6.2-33.5,6.2
	C208.1,102.2,206.2,102.1,204.3,102L204.3,102L204.3,102z"/>
<path class="st0" d="M253.6,89.7c3-1.7,7.8-1.6,11.4-1.7c-2,1.4-4.9,1.9-7.8,1.9C255.9,89.9,254.7,89.8,253.6,89.7L253.6,89.7
	L253.6,89.7z"/>
</svg>
